<?xml version="1.0" encoding="UTF-8"?>
<svg version="1.1" xmlns="http://www.w3.org/2000/svg" width="1254	" height="1254">
<path d="M0 0 C413.82 0 827.64 0 1254 0 C1254 413.82 1254 827.64 1254 1254 C840.18 1254 426.36 1254 0 1254 C0 840.18 0 426.36 0 0 Z " fill="none"/>
<path d="M0 0 C2.92584944 1.3154029 3.83752812 2.40503374 6 5 C6.98128877 9.02247296 6.3829895 12.11912416 4.75 15.875 C2.09333411 19.10095144 0.22224846 19.81400567 -3.875 20.4375 C-8.2682371 19.82244681 -9.84565969 18.08098355 -13 15 C-14.55024464 11.89951072 -14.28992015 9.42105782 -14 6 C-10.2916343 0.31383925 -6.72017026 -1.07024934 0 0 Z " fill="#EDEDED" transform="translate(550,259)"/>
<path d="M0 0 C3.61980608 0.05773215 4.65302956 0.31167237 7.8125 2.375 C10.30118086 6.22844134 10.58128815 8.91134405 9.75 13.375 C8.48515069 16.2841534 7.49549933 17.83515566 4.9375 19.6875 C1.92760008 20.63346855 -0.10198036 20.81572275 -3.25 20.375 C-6.17483867 18.54952064 -8.68429205 16.50641589 -10.25 13.375 C-10.625 10.0625 -10.625 10.0625 -10.25 6.375 C-7.8125 3.5 -7.8125 3.5 -5.25 1.375 C-3.69049449 -0.18450551 -2.16122869 0.09303302 0 0 Z " fill="#ECECEC" transform="translate(546.25,753.625)"/>
<path d="M0 0 C2.79832576 2.18405913 3.73199115 3.69078863 4.44140625 7.15625 C4.79511039 11.67162206 4.43461477 13.46759691 1.5 17.0625 C-2.41039951 19.71565523 -5.38198045 19.73301898 -10 19 C-13.61391202 16.07811368 -15.74312565 13.88374526 -16.375 9.25 C-15.8528401 4.7246142 -14.15770622 3.2328897 -11 0 C-7.48165899 -1.7591705 -3.72167026 -0.9386806 0 0 Z " fill="#EFEFEF" transform="translate(715,507)"/>
<path d="M0 0 C3.18479631 0.05738372 5.20390976 0.5197258 7.8125 2.375 C10.63519347 5.76223217 11.05209974 7.19214274 10.70703125 11.4453125 C9.95477806 15.12464987 8.5323902 17.49163124 5.5 19.6875 C2.54617076 20.61584633 0.396718 20.75265935 -2.6875 20.375 C-5.86246188 18.28241149 -7.57210857 16.54808714 -9.6875 13.375 C-10.125 10 -10.125 10 -9.6875 6.375 C-7.25 3.5 -7.25 3.5 -4.6875 1.375 C-3.6875 0.375 -3.6875 0.375 0 0 Z " fill="#EFEFF0" transform="translate(545.6875,588.625)"/>
<path d="M0 0 C3.11199254 1.99167522 4.61304528 3.27090501 5.43359375 6.9375 C5.67007093 10.72113484 5.2410059 12.61771478 3.1875 15.875 C0.58081838 18.407205 -1.17902948 19.87229347 -4.8125 20.4375 C-9.25786036 19.8273525 -10.81085262 18.11498116 -14 15 C-15.75396815 11.4920637 -14.82185222 7.73147421 -14 4 C-11.00584159 -1.33741281 -5.4835751 -1.00104037 0 0 Z " fill="#F4F4F4" transform="translate(999,960)"/>
<path d="M0 0 C3.58552881 1.63687185 4.79315055 2.68972583 7 6 C7.43660384 9.30571478 7.71042728 11.81419387 5.94921875 14.75390625 C3.25285888 18.05475978 1.48068303 19.79808868 -2.75 20.375 C-7.2753858 19.8528401 -8.7671103 18.15770622 -12 15 C-13.61588379 11.76823243 -13.57451407 8.49384717 -13 5 C-9.51516347 -0.2272548 -5.90239976 -1.11118052 0 0 Z " fill="#EEEEEE" transform="translate(753,960)"/>
<path d="M0 0 C2.92937654 1.81310142 5.43647949 3.87295899 7 7 C7.50312928 11.36045376 7.24536764 13.55015933 5.125 17.4375 C2.65266326 20.05817695 0.55571474 20.52179741 -3 20.75 C-6.55571474 20.52179741 -8.65266326 20.05817695 -11.125 17.4375 C-13.31544373 13.42168649 -13.80349809 11.4995893 -13 7 C-9.66021505 1.52373497 -6.45056446 -0.7442959 0 0 Z " fill="#F3F3F3" transform="translate(753,918)"/>
<path d="M0 0 C2.91606462 1.337814 3.83454862 2.40145834 6 5 C6.98128877 9.02247296 6.3829895 12.11912416 4.75 15.875 C2.09333411 19.10095144 0.22224846 19.81400567 -3.875 20.4375 C-8.2682371 19.82244681 -9.84565969 18.08098355 -13 15 C-14.7576822 11.48463561 -13.94434624 7.7179506 -13 4 C-9.52299542 -0.31991478 -5.31732653 -1.17126296 0 0 Z " fill="#EEEEEE" transform="translate(713,754)"/>
<path d="M0 0 C2.75329021 1.79562405 4.52627461 3.05254922 6 6 C6.47847852 9.0828553 6.5463489 11.92347221 6 15 C2.9946236 18.68158609 0.73982381 20.26690257 -4 20.75 C-7.48841829 20.52191111 -9.12171375 19.39912456 -11.5 16.875 C-13.30878777 14.41207528 -14.00645801 12.97123248 -14.6875 9.9375 C-13.72419559 5.82156297 -11.94981618 4.0200499 -9 1 C-5.89951072 -0.55024464 -3.42105782 -0.28992015 0 0 Z " fill="#F0F0F1" transform="translate(550,671)"/>
<path d="M0 0 C2.97361628 1.78152067 5.42653612 3.85307225 7 7 C7.39447548 11.18144011 7.45035186 13.30946048 5.125 16.875 C2.38653854 19.61346146 1.59119587 19.95538144 -2.3125 20.25 C-6.22632394 19.984656 -7.93192479 19.36680088 -11 17 C-13.48386059 13.27420911 -13.3804212 11.41288598 -13 7 C-10.11285364 0.81325779 -6.74979653 -0.80082332 0 0 Z " fill="#F0F0F0" transform="translate(753,506)"/>
<path d="M0 0 C4.3287037 2.36111111 4.3287037 2.36111111 6 5 C6.85942202 8.51843913 6.85383549 11.4808132 6 15 C4.08388927 18.12409359 1.60074531 19.56170069 -1.96875 20.5390625 C-5.22050913 20.87674518 -7.18699627 20.60286294 -9.84375 18.6328125 C-12.47251293 15.84285185 -13.84279678 13.70026887 -14.6875 9.9375 C-13.72419559 5.82156297 -11.94981618 4.0200499 -9 1 C-5.85088521 -0.57455739 -3.47991184 -0.34799118 0 0 Z " fill="#EEEEEE" transform="translate(509,341)"/>
<path d="M0 0 C3.3250875 2.49381562 4.56143001 5.20465133 5.25 9.25 C4.54589925 13.56261712 2.78907145 15.20106971 -0.25 18.3125 C-3.35048928 19.86274464 -5.82894218 19.60242015 -9.25 19.3125 C-12.00329021 17.51687595 -13.77627461 16.25995078 -15.25 13.3125 C-15.8311138 6.22291162 -15.8311138 6.22291162 -13.375 2.375 C-9.45577549 -1.4289532 -5.20576272 -1.59064972 0 0 Z " fill="#EEEDEE" transform="translate(470.25,300.6875)"/>
<path d="M0 0 C2.59954609 0.59661714 3.69521393 1.18284166 5.5078125 3.109375 C7.67703854 7.08628941 8.11234957 9.08859289 7.3828125 13.546875 C5.303714 16.77306233 3.58241721 18.4138052 0.3828125 20.546875 C-2.62292838 21.01443469 -4.66761784 21.13815796 -7.3046875 19.49609375 C-9.50343787 17.70432362 -11.33767863 16.10589275 -12.6171875 13.546875 C-13.08368842 8.80411567 -13.28680976 6.61827062 -10.7421875 2.546875 C-6.94737936 0.11819779 -4.44638686 -0.23891034 0 0 Z " fill="#F4F3F4" transform="translate(915.6171875,959.453125)"/>
<path d="M0 0 C3.64031164 0.28847753 6.10420953 1.26290168 9 3.5625 C11.51250583 7.33125875 11.53016086 9.09400134 11 13.5625 C9.21847933 16.53611628 7.14692775 18.98903612 4 20.5625 C1.03604618 20.96667552 -1.08904926 21.12632171 -3.69140625 19.515625 C-7.2929413 16.56496978 -8.84143425 14.93673651 -9.375 10.3125 C-8.7902216 4.46471605 -6.18374176 0.25765591 0 0 Z " fill="#EFEFEF" transform="translate(586,959.4375)"/>
<path d="M0 0 C3.64031164 0.28847753 6.10420953 1.26290168 9 3.5625 C11.51250583 7.33125875 11.53016086 9.09400134 11 13.5625 C9.21847933 16.53611628 7.14692775 18.98903612 4 20.5625 C1.03604618 20.96667552 -1.08904926 21.12632171 -3.69140625 19.515625 C-7.2929413 16.56496978 -8.84143425 14.93673651 -9.375 10.3125 C-8.7902216 4.46471605 -6.18374176 0.25765591 0 0 Z " fill="#F0F0F0" transform="translate(423,959.4375)"/>
<path d="M0 0 C5.57894737 3.15789474 5.57894737 3.15789474 7 6 C7.49428988 10.19741246 7.70057419 13.78161011 5.5625 17.5 C1.9000124 19.64389518 -1.76915917 20.2234599 -6 20 C-9.84524747 18.49233103 -11.28055234 16.78278485 -13 13 C-13.5229164 9.92786617 -13.63177382 8.00615831 -11.9453125 5.3203125 C-8.17564875 0.65842064 -5.95415071 -0.57251449 0 0 Z " fill="#F0F0F1" transform="translate(549,877)"/>
<path d="M0 0 C4.99503071 0.4913145 6.31841769 1.88091769 9.8125 5.375 C11.26397903 8.27795805 11.18489025 10.14761779 10.8125 13.375 C8.99939858 16.30437654 6.93954101 18.81147949 3.8125 20.375 C-0.58684481 20.88261671 -2.72975386 20.63300237 -6.625 18.4375 C-9.62583837 14.85113219 -10.01468291 13.08051965 -9.7265625 8.53125 C-8.8764495 5.13079802 -6.88216664 3.47815445 -4.1875 1.375 C-3.1875 0.375 -3.1875 0.375 0 0 Z " fill="#F0F0F0" transform="translate(790.1875,835.625)"/>
<path d="M0 0 C2.9640585 1.80767693 5.42197673 3.84395345 7 7 C7.41906739 10.77160651 7.31200824 12.50970134 5.25 15.75 C2.19948667 18.80051333 0.37808412 19.79029155 -3.875 20.4375 C-7.22211052 19.96890453 -9.34890246 19.07509032 -11.8515625 16.7578125 C-13.82358394 13.73941233 -13.80825044 10.90762314 -13.58203125 7.3828125 C-12.95216115 4.80414968 -12.35292868 3.68200819 -10.4375 1.875 C-6.42168649 -0.31544373 -4.4995893 -0.80349809 0 0 Z " fill="#F1F1F1" transform="translate(305,795)"/>
<path d="M0 0 C5.53846154 3.07692308 5.53846154 3.07692308 7 6 C7.3885634 10.11877201 7.45820463 12.28899282 5.1875 15.8125 C1.03954802 19.96045198 1.03954802 19.96045198 -2.15625 20.08203125 C-2.9296875 19.99308594 -3.703125 19.90414062 -4.5 19.8125 C-5.2734375 19.73644531 -6.046875 19.66039062 -6.84375 19.58203125 C-9.40630437 18.89032726 -10.3758204 18.0747904 -12 16 C-13.24489466 12.26531601 -13.78198552 8.86481305 -13 5 C-9.05672361 0.3834813 -6.00304154 -0.96477453 0 0 Z " fill="#F0F0F0" transform="translate(916,795)"/>
<path d="M0 0 C3.3765266 0.05393812 5.60371329 0.39929799 8.375 2.375 C10.888919 5.46905415 11.72290457 7.28784174 11.39453125 11.3046875 C10.28610435 15.24741406 8.09889509 17.97701501 4.8125 20.375 C0.23530202 21.35582814 -1.54567194 20.75534255 -5.5625 18.375 C-8.37354288 15.16237957 -9.18579263 13.52817168 -9.4375 9.375 C-8.72364865 3.66418919 -5.40324796 0.23531733 0 0 Z " fill="#F2F2F2" transform="translate(504.1875,547.625)"/>
<path d="M0 0 C2.97672584 1.77280561 5.42804007 3.85608015 7 7 C7.40417552 9.96395382 7.56382171 12.08904926 5.953125 14.69140625 C2.75712368 18.59240786 1.19213549 19.86319757 -3.8125 20.4375 C-7.48419817 20.37730823 -7.96171887 20.03190094 -11 17.5 C-13.71458092 13.60756702 -13.66265823 10.63860763 -13 6 C-9.39443173 0.35127638 -6.64247344 -0.66424734 0 0 Z " fill="#EEEEEF" transform="translate(794,506)"/>
<path d="M0 0 C2.92483867 1.82547936 5.43429205 3.86858411 7 7 C7.42436204 10.73438596 7.06931464 12.84027497 5.5625 16.3125 C2.43277101 19.59489869 0.60220436 19.96521147 -3.8125 20.17578125 C-6.88802826 19.92864059 -8.66262825 18.98322451 -11 17 C-13.48386059 13.27420911 -13.3804212 11.41288598 -13 7 C-11.73001681 4.14253783 -10.7161997 2.51862737 -8.1875 0.6875 C-5.17760008 -0.25846855 -3.14801964 -0.44072275 0 0 Z " fill="#EDEDEE" transform="translate(468,506)"/>
<path d="M0 0 C2.75329021 1.79562405 4.52627461 3.05254922 6 6 C6.37712577 10.99691647 6.09290612 13.99067725 3 18 C-0.67110272 20.44740181 -3.73151254 20.71572618 -8 20 C-11.40337824 17.40268503 -13.76788741 14.49215234 -14.4375 10.1875 C-13.8273525 5.74213964 -12.11498116 4.18914738 -9 1 C-5.89951072 -0.55024464 -3.42105782 -0.28992015 0 0 Z " fill="#EEEDEE" transform="translate(550,300)"/>
<path d="M0 0 C2.8100346 1.79363911 4.50940468 3.01880935 6 6 C6.67660495 11.86390959 6.67660495 11.86390959 4.953125 14.7578125 C2.24830146 18.05133293 0.48199038 19.7979104 -3.75 20.375 C-8.2753858 19.8528401 -9.7671103 18.15770622 -13 15 C-14.55024464 11.89951072 -14.28992015 9.42105782 -14 6 C-10.26747896 0.27680107 -6.74763808 -0.96948823 0 0 Z " fill="#F2F2F3" transform="translate(591,259)"/>
<path d="M0 0 C3.64031164 0.28847753 6.10420953 1.26290168 9 3.5625 C11.4915904 7.2998856 11.45793285 9.13581583 11 13.5625 C8.9209015 16.78868733 7.19960471 18.4294302 4 20.5625 C0.99425912 21.03005969 -1.05043034 21.15378296 -3.6875 19.51171875 C-7.29674087 16.57053448 -8.84167915 14.93461402 -9.375 10.3125 C-8.7902216 4.46471605 -6.18374176 0.25765591 0 0 Z " fill="#F2F2F3" transform="translate(871,959.4375)"/>
<path d="M0 0 C3.64031164 0.28847753 6.10420953 1.26290168 9 3.5625 C11.4915904 7.2998856 11.45793285 9.13581583 11 13.5625 C8.9209015 16.78868733 7.19960471 18.4294302 4 20.5625 C0.99425912 21.03005969 -1.05043034 21.15378296 -3.6875 19.51171875 C-7.29674087 16.57053448 -8.84167915 14.93461402 -9.375 10.3125 C-8.7902216 4.46471605 -6.18374176 0.25765591 0 0 Z " fill="#EFEFEF" transform="translate(260,959.4375)"/>
<path d="M0 0 C2.92937654 1.81310142 5.43647949 3.87295899 7 7 C7.39447548 11.18144011 7.45035186 13.30946048 5.125 16.875 C2.26113472 19.73886528 0.57659821 20.20433297 -3.375 20.375 C-7.09059345 20.35110551 -7.67564165 20.30814043 -10.5 17.625 C-12.74393026 13.69812204 -13.53024237 11.59543387 -13 7 C-9.6221874 1.54256397 -6.46231639 -0.74565189 0 0 Z " fill="#F0F0F0" transform="translate(386,918)"/>
<path d="M0 0 C1.17369141 0.10054687 1.17369141 0.10054687 2.37109375 0.203125 C4.98046062 0.8543039 5.92365454 1.64506088 7.5625 3.75 C8.76440901 7.35572704 8.88920315 9.9602435 8.5625 13.75 C6.42570715 17.13939556 5.3850233 18.47582557 1.5625 19.75 C-1.8125 20.125 -1.8125 20.125 -5.4375 19.75 C-9.01263152 16.79663048 -11.18114334 14.62994881 -11.8125 10 C-11.2903401 5.4746142 -9.59520622 3.9828897 -6.4375 0.75 C-3.98972161 -0.4738892 -2.70359459 -0.266364 0 0 Z " fill="#F0F0F0" transform="translate(995.4375,877.25)"/>
<path d="M0 0 C4.99503071 0.4913145 6.31841769 1.88091769 9.8125 5.375 C11.26397903 8.27795805 11.18489025 10.14761779 10.8125 13.375 C8.99939858 16.30437654 6.93954101 18.81147949 3.8125 20.375 C-0.58684481 20.88261671 -2.72975386 20.63300237 -6.625 18.4375 C-9.62583837 14.85113219 -10.01468291 13.08051965 -9.7265625 8.53125 C-8.8764495 5.13079802 -6.88216664 3.47815445 -4.1875 1.375 C-3.1875 0.375 -3.1875 0.375 0 0 Z " fill="#EFEFEF" transform="translate(912.1875,876.625)"/>
<path d="M0 0 C5.57894737 3.15789474 5.57894737 3.15789474 7 6 C7.47844415 9.0826338 7.55149629 11.92434762 7 15 C3.98819573 18.5994734 2.11528769 19.80084148 -2.5 20.625 C-7.11588456 19.8007349 -8.70966114 18.29033886 -12 15 C-13.45147903 12.09704195 -13.37239025 10.22738221 -13 7 C-9.58798533 1.48730466 -6.4900561 -0.62404386 0 0 Z " fill="#F3F3F3" transform="translate(549,836)"/>
<path d="M0 0 C2.5625 1.5625 2.5625 1.5625 4 4 C4.59504211 9.35537896 4.45484378 12.64945598 1 17 C-2.76875875 19.51250583 -4.53150134 19.53016086 -9 19 C-11.97361628 17.21847933 -14.42653612 15.14692775 -16 12 C-16.25356203 8.11204889 -16.32836566 5.21536211 -14 2 C-9.64386724 -1.82811666 -5.32507789 -1.43061794 0 0 Z " fill="#F1F1F1" transform="translate(715,796)"/>
<path d="M0 0 C2.5625 1.5625 2.5625 1.5625 4 4 C4.59504211 9.35537896 4.45484378 12.64945598 1 17 C-2.7373856 19.4915904 -4.57331583 19.45793285 -9 19 C-12.22618733 16.9209015 -13.8669302 15.19960471 -16 12 C-16.50256748 7.37637916 -15.86230692 4.6801089 -13 1 C-8.66161331 -1.72539676 -4.82303481 -1.1946967 0 0 Z " fill="#F2F2F2" transform="translate(552,796)"/>
<path d="M0 0 C2.92937654 1.81310142 5.43647949 3.87295899 7 7 C7.50312928 11.36045376 7.24536764 13.55015933 5.125 17.4375 C2.63336849 20.09333645 0.52780801 20.49658259 -3.0625 20.6875 C-6.84034357 20.46825015 -7.69113876 20.28626164 -10.5625 17.625 C-12.72087191 13.6836252 -13.52763342 11.57282301 -13 7 C-9.6221874 1.54256397 -6.46231639 -0.74565189 0 0 Z " fill="#F0F0F0" transform="translate(386,712)"/>
<path d="M0 0 C2.92937654 1.81310142 5.43647949 3.87295899 7 7 C7.39069343 11.14135035 7.43382227 13.31186812 5.1875 16.875 C2.20688708 19.77045255 0.25058611 19.97170802 -3.875 20.4375 C-7.55603034 20.38316745 -7.97056602 20.02514152 -11 17.4375 C-13.33913408 13.41711329 -13.81591827 11.56914233 -13 7 C-9.66021505 1.52373497 -6.45056446 -0.7442959 0 0 Z " fill="#F0F0F0" transform="translate(427,712)"/>
<path d="M0 0 C2.87029869 1.79393668 4.49131638 2.98263276 6 6 C6.3885634 10.11877201 6.45820463 12.28899282 4.1875 15.8125 C1.59491086 18.40508914 -0.14738186 19.86737051 -3.8125 20.4375 C-8.25786036 19.8273525 -9.81085262 18.11498116 -13 15 C-14.75241948 11.49516105 -13.82766824 7.72781776 -13 4 C-10.04961344 -1.0402437 -5.31479175 -0.96632577 0 0 Z " fill="#EEEEEF" transform="translate(754,548)"/>
<path d="M0 0 C2.96207883 1.81311103 5.42096251 3.84192502 7 7 C7.39447548 11.18144011 7.45035186 13.30946048 5.125 16.875 C2.21289342 19.78710658 1.3997223 19.96068305 -2.8125 20.375 C-6.45869525 20.35511166 -6.92035679 20.06608692 -9.9375 17.5625 C-10.618125 16.716875 -11.29875 15.87125 -12 15 C-12.33 14.67 -12.66 14.34 -13 14 C-13.78956644 7.34508283 -13.78956644 7.34508283 -11.90625 4.13671875 C-8.3150156 0.13478468 -5.46113252 -1.07272246 0 0 Z " fill="#F0F0F0" transform="translate(753,341)"/>
<path d="M0 0 C4.80098725 0.60964917 6.7231546 0.93869877 9.6875 4.75 C11.20026677 8.0780869 11.52827522 9.88150175 10.9375 13.5 C9.1030528 16.42152702 7.07217819 18.9326609 3.9375 20.5 C-0.69804388 20.91204834 -3.36666098 20.37454146 -7.0625 17.5 C-9.63439679 14.07080428 -9.564642 10.66060514 -9.0625 6.5 C-6.6352834 2.32822147 -4.87565963 0.13670074 0 0 Z " fill="#F0F0F0" transform="translate(627.0625,959.5)"/>
<path d="M0 0 C3.58552881 1.63687185 4.79315055 2.68972583 7 6 C7.46112425 10.15011825 7.47407515 12.26436615 5.1875 15.8125 C2.59491086 18.40508914 0.85261814 19.86737051 -2.8125 20.4375 C-7.25786036 19.8273525 -8.81085262 18.11498116 -12 15 C-13.75087536 11.49824928 -12.8334692 7.72415207 -12 4 C-9.123959 -0.71670723 -5.1320996 -0.85705043 0 0 Z " fill="#F0F0F0" transform="translate(386,960)"/>
<path d="M0 0 C2.92937654 1.81310142 5.43647949 3.87295899 7 7 C7.45063943 10.96562695 7.12904332 12.76416221 5.1875 16.3125 C2.28543388 19.87789552 0.65817743 19.92568965 -3.875 20.4375 C-7.55603034 20.38316745 -7.97056602 20.02514152 -11 17.4375 C-13.33913408 13.41711329 -13.81591827 11.56914233 -13 7 C-9.66021505 1.52373497 -6.45056446 -0.7442959 0 0 Z " fill="#F0F0F1" transform="translate(631,918)"/>
<path d="M0 0 C2.92937654 1.81310142 5.43647949 3.87295899 7 7 C7.34556568 10.01135805 7.57794337 12.09361171 7 15 C3.90727295 18.62075362 2.11870304 19.86498412 -2.625 20.4375 C-6.77555065 19.89946566 -8.76248056 19.19332232 -11.75 16.3125 C-13.56788654 12.9494099 -13.52034932 10.77253257 -13 7 C-9.69249318 1.51198869 -6.42810678 -0.74170463 0 0 Z " fill="#F1F1F1" transform="translate(712,877)"/>
<path d="M0 0 C5.70769231 3.12307692 5.70769231 3.12307692 7 7 C7.55961071 14.05109489 7.55961071 14.05109489 5.5625 17.4375 C1.80211701 19.73041646 -1.61941235 20.28799711 -6 20 C-9.5 18.625 -9.5 18.625 -12 16 C-13.14064689 12.9114792 -13.45167478 10.26335025 -13 7 C-9.98427054 1.32194687 -6.27921102 -0.60377029 0 0 Z " fill="#F1F1F1" transform="translate(712,836)"/>
<path d="M0 0 C5.53846154 3.07692308 5.53846154 3.07692308 7 6 C7.67660495 11.86390959 7.67660495 11.86390959 5.953125 14.7578125 C4.16405507 16.93626824 2.54084375 18.72957812 0 20 C-3.88795111 20.25356203 -6.78463789 20.32836566 -10 18 C-12.74882451 14.87202729 -13.23261376 12.47833325 -13 8.4375 C-12.48407998 5.14439347 -12.07312825 4.08818406 -9.875 1.4375 C-6.20774126 -0.39612937 -4.05973296 -0.56978708 0 0 Z " fill="#F1F1F1" transform="translate(753,795)"/>
<path d="M0 0 C2.5625 1.5625 2.5625 1.5625 4 4 C4.59504211 9.35537896 4.45484378 12.64945598 1 17 C-2.76875875 19.51250583 -4.53150134 19.53016086 -9 19 C-11.97361628 17.21847933 -14.42653612 15.14692775 -16 12 C-16.40417552 9.03604618 -16.56382171 6.91095074 -14.953125 4.30859375 C-10.22513686 -1.46233295 -6.97595429 -1.56122601 0 0 Z " fill="#F1F1F1" transform="translate(511,796)"/>
<path d="M0 0 C2.92937654 1.81310142 5.43647949 3.87295899 7 7 C7.40417552 9.96395382 7.56382171 12.08904926 5.953125 14.69140625 C3.00246978 18.2929413 1.37423651 19.84143425 -3.25 20.375 C-8.13275687 19.88672431 -9.85859952 18.75435667 -13 15 C-13.8022085 11.83127643 -13.78700567 9.17100095 -13 6 C-9.12968039 1.11117523 -6.23433807 -0.7193467 0 0 Z " fill="#F0F0F1" transform="translate(468,671)"/>
<path d="M0 0 C2.75329021 1.79562405 4.52627461 3.05254922 6 6 C6.5811138 13.08958838 6.5811138 13.08958838 4.125 16.9375 C1.37722199 19.60446101 0.553254 19.95824498 -3.3125 20.25 C-7.45285773 19.96929778 -10.04872053 18.95127947 -13 16 C-13.5689964 11.7073183 -14.18920403 7.00041106 -11.90625 3.16015625 C-8.20439345 -0.23649404 -4.81447134 -0.78782258 0 0 Z " fill="#EFEFEF" transform="translate(550,506)"/>
<path d="M0 0 C2.97361628 1.78152067 5.42653612 3.85307225 7 7 C7.40417552 9.96395382 7.56382171 12.08904926 5.953125 14.69140625 C4.15636794 16.88450678 2.55808759 18.7209562 0 20 C-3.91093991 20.3689566 -6.33546589 20.33226705 -9.875 18.5625 C-12.87942161 14.939521 -13.29851972 11.64364014 -13 7 C-10.33701924 0.74199522 -6.62350422 -0.78583948 0 0 Z " fill="#F1F2F2" transform="translate(794,465)"/>
<path d="M0 0 C3.3125 1.4375 3.3125 1.4375 6 4 C7.43443461 8.2714275 7.49993757 11.76331233 5.8125 15.9375 C3.01709237 19.11848109 1.22036335 19.89830305 -3 20.25 C-6.02710909 19.99774091 -7.5588823 19.76770592 -10 18 C-12.3124305 15.10946187 -12.97378505 13.18350462 -13.5 9.5 C-12.8707347 5.09514288 -11.4026803 3.75455072 -8 1 C-5.13391871 -0.43304064 -3.18699217 -0.30644155 0 0 Z " fill="#F1F1F1" transform="translate(753,424)"/>
<path d="M0 0 C2.75329021 1.79562405 4.52627461 3.05254922 6 6 C6.37712577 10.99691647 6.09290612 13.99067725 3 18 C-0.68115537 20.45410358 -2.65293598 20.23287843 -7 20 C-11.10047683 18.63317439 -11.9534939 16.74016633 -14 13 C-14.58683636 9.87020606 -14.66611671 8.05447996 -12.94140625 5.32421875 C-8.87406355 0.26719623 -6.42674204 -0.54463916 0 0 Z " fill="#F1F1F1" transform="translate(713,300)"/>
<path d="M0 0 C2.97672584 1.77280561 5.42804007 3.85608015 7 7 C7.42351789 10.81166103 7.32589594 12.5055372 5.1875 15.75 C2.33589821 18.68307613 0.73826095 19.91797101 -3.375 20.375 C-7.57753195 19.94025532 -9.08932948 18.99627847 -12 16 C-13.20190901 12.39427296 -13.32670315 9.7897565 -13 6 C-9.33404658 0.37887142 -6.67491925 -0.66749193 0 0 Z " fill="#F0F0F1" transform="translate(794,300)"/>
<path d="M0 0 C2.88834499 1.57597076 5.03445867 3.356086 7 6 C7.70771676 10.03398552 7.4111303 12.1190065 5.6875 15.8125 C4 18 4 18 1 20 C-2.0169088 20.34061873 -4.09407815 20.57212107 -7 20 C-9.69105198 17.82425584 -11.45532928 16.08934144 -13 13 C-13.23333333 6.46666667 -13.23333333 6.46666667 -12 4 C-11.34 4 -10.68 4 -10 4 C-10 3.34 -10 2.68 -10 2 C-6.19593784 -0.53604144 -4.51491096 -0.60198813 0 0 Z " fill="#F0F0F1" transform="translate(753,300)"/>
<path d="M0 0 C3.3125 1.4375 3.3125 1.4375 6 4 C7.44184074 8.2934813 7.52367161 11.76937172 5.75 15.9375 C3.22401229 18.91455694 1.58831058 19.9333988 -2.3125 20.375 C-6.81274149 19.91734832 -8.75493115 19.16780531 -12 16 C-13.15236366 12.91728097 -13.45127448 10.26045813 -13 7 C-9.98427054 1.32194687 -6.27921102 -0.60377029 0 0 Z " fill="#F2F2F2" transform="translate(712,217)"/>
<path d="M0 0 C2.41796875 0.4765625 2.41796875 0.4765625 5.54296875 2.4765625 C7.89915169 6.24645521 8.28593609 9.2034925 7.41796875 13.4765625 C5.98046875 16.9140625 5.98046875 16.9140625 3.41796875 19.4765625 C0.32536182 20.62675407 -2.31156912 20.88325209 -5.58203125 20.4765625 C-9.99013819 18.23384143 -9.99013819 18.23384143 -11.58203125 15.4765625 C-12.59276101 10.6893076 -12.17038883 6.81373882 -10.20703125 2.3515625 C-6.73410208 -0.1291012 -4.20258506 -0.23589104 0 0 Z " fill="#F1F1F1" transform="translate(344.58203125,959.5234375)"/>
<path d="M0 0 C2.92937654 1.81310142 5.43647949 3.87295899 7 7 C6.984375 9.05859375 6.984375 9.05859375 6.75 11.4375 C6.68296875 12.21996094 6.6159375 13.00242187 6.546875 13.80859375 C5.8956961 16.41796062 5.10493912 17.36115454 3 19 C-0.60572704 20.20190901 -3.2102435 20.32670315 -7 20 C-10.10639345 18.44680328 -11.56773236 17.2655836 -12.703125 13.94140625 C-13.30378573 10.64333389 -13.60439916 8.14243292 -12.00390625 5.1171875 C-8.34275785 0.61951558 -5.72343595 -0.66039646 0 0 Z " fill="#F2F2F2" transform="translate(427,877)"/>
<path d="M0 0 C2.92810762 1.81651121 5.43591638 3.87183276 7 7 C7.41204834 11.63554388 6.87454146 14.30416098 4 18 C0.98411666 19.90510832 -1.04226845 20.2234915 -4.5625 19.8125 C-5.32691406 19.73644531 -6.09132813 19.66039062 -6.87890625 19.58203125 C-9.44927909 18.87671716 -10.41252106 18.12954493 -12 16 C-13.48987739 11.31625372 -13.45021143 7.90042286 -11.25 3.5 C-7.90613134 -0.21540962 -4.84135291 -0.56957093 0 0 Z " fill="#F1F1F1" transform="translate(427,836)"/>
<path d="M0 0 C3.3125 1.4375 3.3125 1.4375 6 4 C7.43443461 8.2714275 7.49993757 11.76331233 5.8125 15.9375 C2.86320602 19.29359315 1.00135202 19.8725552 -3.4375 20.4375 C-7.91903826 19.88713565 -9.20852117 18.44829737 -12 15 C-13.56935594 11.86128812 -13.35201103 9.46144178 -13 6 C-8.97224931 1.1243018 -6.32056233 -0.60774638 0 0 Z " fill="#EFEFF0" transform="translate(753,836)"/>
<path d="M0 0 C2.92810762 1.81651121 5.43591638 3.87183276 7 7 C7.40417552 9.96395382 7.56382171 12.08904926 5.953125 14.69140625 C4.15636794 16.88450678 2.55808759 18.7209562 0 20 C-2.05859375 19.984375 -2.05859375 19.984375 -4.4375 19.75 C-5.61119141 19.64945313 -5.61119141 19.64945313 -6.80859375 19.546875 C-9.41796062 18.8956961 -10.36115454 18.10493912 -12 16 C-13.20190901 12.39427296 -13.32670315 9.7897565 -13 6 C-9.6162951 0.63274396 -6.27574982 -0.73832351 0 0 Z " fill="#F3F3F4" transform="translate(631,795)"/>
<path d="M0 0 C3.38148579 0.83422719 4.98717768 2.83737789 7 5.578125 C8.64136781 8.53258706 8.84549357 10.2162718 8.07421875 13.51171875 C6.21635315 16.42441647 4.21756456 18.94004584 1.07421875 20.51171875 C-2.66016721 20.93608079 -4.76605622 20.58103339 -8.23828125 19.07421875 C-11.52067994 15.94448976 -11.89099272 14.11392311 -12.1015625 9.69921875 C-11.85442184 6.62369049 -10.90900576 4.8490905 -8.92578125 2.51171875 C-5.78327979 0.41671778 -3.76293285 -0.09042168 0 0 Z " fill="#F1F1F2" transform="translate(792.92578125,794.48828125)"/>
<path d="M0 0 C5.53846154 3.07692308 5.53846154 3.07692308 7 6 C7.67660495 11.86390959 7.67660495 11.86390959 5.953125 14.7578125 C3.24830146 18.05133293 1.48199038 19.7979104 -2.75 20.375 C-7.2753858 19.8528401 -8.7671103 18.15770622 -12 15 C-13.75619893 11.48760215 -12.94999674 7.71422336 -12 4 C-8.47865794 -0.24632425 -5.36207238 -0.75257156 0 0 Z " fill="#F0F0F0" transform="translate(875,754)"/>
<path d="M0 0 C5.57894737 3.15789474 5.57894737 3.15789474 7 6 C7.67660495 11.86390959 7.67660495 11.86390959 5.953125 14.7578125 C3.24830146 18.05133293 1.48199038 19.7979104 -2.75 20.375 C-7.2753858 19.8528401 -8.7671103 18.15770622 -12 15 C-13.55024464 11.89951072 -13.28992015 9.42105782 -13 6 C-9.5802497 0.57556848 -6.30860288 -0.61849048 0 0 Z " fill="#EFEFEF" transform="translate(590,754)"/>
<path d="M0 0 C3.38726487 2.63453934 4.0863467 4.46804917 4.625 8.6875 C4.15676691 12.51140355 2.90718681 14.01689357 0.25 16.75 C-3.00860909 18.92240606 -3.57050803 18.98564158 -7.25 18.5625 C-8.0234375 18.48644531 -8.796875 18.41039062 -9.59375 18.33203125 C-12.15630437 17.64032726 -13.1258204 16.8247904 -14.75 14.75 C-15.95190901 11.14427296 -16.07670315 8.5397565 -15.75 4.75 C-11.92173922 -1.32241365 -6.67587174 -3.03448716 0 0 Z " fill="#F0F0F0" transform="translate(633.75,755.25)"/>
<path d="M0 0 C2.92937654 1.81310142 5.43647949 3.87295899 7 7 C7.3689566 10.91093991 7.33226705 13.33546589 5.5625 16.875 C1.93544881 19.88279855 -1.35303713 20.29043518 -6 20 C-9.01891288 18.77958841 -10.41982327 17.80119643 -12.3125 15.1875 C-13.25846855 12.17760008 -13.44072275 10.14801964 -13 7 C-9.59903504 1.55087026 -6.47839628 -0.74750726 0 0 Z " fill="#F2F2F2" transform="translate(875,712)"/>
<path d="M0 0 C2.59954609 0.59661714 3.69521393 1.18284166 5.5078125 3.109375 C7.69825623 7.12518851 8.18631059 9.0472857 7.3828125 13.546875 C5.02170139 17.8755787 5.02170139 17.8755787 2.3828125 19.546875 C-1.13562663 20.40629702 -4.0980007 20.40071049 -7.6171875 19.546875 C-10.44316285 17.81361012 -10.95923405 16.64172145 -12.6171875 13.546875 C-13.34098905 10.45262337 -13.13922075 8.83568446 -12.6171875 5.546875 C-9.37636119 0.3615529 -5.78251789 -0.31070245 0 0 Z " fill="#F3F3F3" transform="translate(752.6171875,712.453125)"/>
<path d="M0 0 C3.3125 1.4375 3.3125 1.4375 6 4 C7.43443461 8.2714275 7.49993757 11.76331233 5.8125 15.9375 C2.86320602 19.29359315 1.00135202 19.8725552 -3.4375 20.4375 C-7.91903826 19.88713565 -9.20852117 18.44829737 -12 15 C-13.76263089 11.47473822 -13.06612889 7.70512695 -12 4 C-8.23131331 0.40660106 -5.15995048 -0.85999175 0 0 Z " fill="#F1F1F1" transform="translate(753,671)"/>
<path d="M0 0 C2.5625 1.5625 2.5625 1.5625 4 4 C4.48773991 8.38965922 4.50069047 10.84841192 2.75 14.875 C0.09333411 18.10095144 -1.77775154 18.81400567 -5.875 19.4375 C-10.2682371 18.82244681 -11.84565969 17.08098355 -15 14 C-16.41000664 11.17998673 -16.24548451 9.12992745 -16 6 C-12.60158116 -1.47652145 -7.36055375 -1.82325643 0 0 Z " fill="#F1F1F2" transform="translate(715,590)"/>
<path d="M0 0 C5.53846154 3.07692308 5.53846154 3.07692308 7 6 C7.67660495 11.86390959 7.67660495 11.86390959 5.953125 14.7578125 C3.24830146 18.05133293 1.48199038 19.7979104 -2.75 20.375 C-7.2753858 19.8528401 -8.7671103 18.15770622 -12 15 C-13.75619893 11.48760215 -12.94999674 7.71422336 -12 4 C-8.47865794 -0.24632425 -5.36207238 -0.75257156 0 0 Z " fill="#F2F2F2" transform="translate(590,589)"/>
<path d="M0 0 C2.9375 1.3125 2.9375 1.3125 5 3 C6.52199443 7.56598329 6.74716734 11.39892714 4.6875 15.8125 C2.27434826 18.94065967 0.6115904 19.91922391 -3.3125 20.4375 C-6.97837836 20.00256528 -9.16871517 19.31874917 -11.890625 16.7578125 C-14.20589077 13.08925758 -13.88330421 9.11309593 -13 5 C-9.61796436 -0.28443069 -5.87668006 -1.10410353 0 0 Z " fill="#F2F2F3" transform="translate(509,259)"/>
<path d="M0 0 C2.92937654 1.81310142 5.43647949 3.87295899 7 7 C7.39069343 11.14135035 7.43382227 13.31186812 5.1875 16.875 C2.36458424 19.61726103 0.5100178 19.94333136 -3.375 20.375 C-7 20 -7 20 -9.875 17.625 C-12.12186213 14.84946442 -12.89853235 13.74409608 -13.375 10.25 C-12.8528401 5.7246142 -11.15770622 4.2328897 -8 1 C-5.09704195 -0.45147903 -3.22738221 -0.37239025 0 0 Z " fill="#F1F1F2" transform="translate(590,217)"/>
<path d="M0 0 C2.41796875 0.4765625 2.41796875 0.4765625 5.54296875 2.4765625 C7.95366928 6.33368335 8.24311074 9.04590875 7.41796875 13.4765625 C6.15311944 16.3857159 5.16346808 17.93671816 2.60546875 19.7890625 C-0.40443117 20.73503105 -2.43401161 20.91728525 -5.58203125 20.4765625 C-9.89091156 18.08274011 -9.89091156 18.08274011 -11.58203125 15.4765625 C-12.61514147 10.70234104 -12.1650394 6.80158103 -10.20703125 2.3515625 C-6.73410208 -0.1291012 -4.20258506 -0.23589104 0 0 Z " fill="#EFEFF0" transform="translate(507.58203125,959.5234375)"/>
<path d="M0 0 C2.92483867 1.82547936 5.43429205 3.86858411 7 7 C7.41204834 11.63554388 6.87454146 14.30416098 4 18 C0.57905881 20.56570589 -2.84773484 20.43708054 -7 20 C-9.875 18.5625 -9.875 18.5625 -12 16 C-13.29911752 11.70168524 -13.50272137 8.24357391 -11.8125 4.0625 C-8.36280739 0.13698771 -5.19181082 -0.72685352 0 0 Z " fill="#F0F0F0" transform="translate(264,877)"/>
<path d="M0 0 C2.77428577 1.26103899 4.48317435 2.31089914 6.3125 4.75 C7.32453615 8.06211832 7.42314481 10.55439226 7 14 C4.8272578 16.63016161 3.05326212 18.47336894 0 20 C-3.12204618 20.13862367 -5.99412861 19.86492214 -9 19 C-11.83431439 16.02742637 -12.81005798 14.01302411 -13.5625 10 C-12.76917613 5.76893936 -10.99780451 4.0691808 -8 1 C-5.17998673 -0.41000664 -3.12992745 -0.24548451 0 0 Z " fill="#F1F1F1" transform="translate(386,877)"/>
<path d="M0 0 C2.92483867 1.82547936 5.43429205 3.86858411 7 7 C7.40417552 9.96395382 7.56382171 12.08904926 5.953125 14.69140625 C4.15636794 16.88450678 2.55808759 18.7209562 0 20 C-3.91093991 20.3689566 -6.33546589 20.33226705 -9.875 18.5625 C-12.88279855 14.93544881 -13.29043518 11.64696287 -13 7 C-11.77958841 3.98108712 -10.80119643 2.58017673 -8.1875 0.6875 C-5.17760008 -0.25846855 -3.14801964 -0.44072275 0 0 Z " fill="#F2F2F2" transform="translate(631,836)"/>
<path d="M0 0 C3.3125 1.4375 3.3125 1.4375 6 4 C7.43443461 8.2714275 7.49993757 11.76331233 5.8125 15.9375 C2.86320602 19.29359315 1.00135202 19.8725552 -3.4375 20.4375 C-7.91903826 19.88713565 -9.20852117 18.44829737 -12 15 C-13.45147903 12.09704195 -13.37239025 10.22738221 -13 7 C-9.58798533 1.48730466 -6.4900561 -0.62404386 0 0 Z " fill="#F3F3F3" transform="translate(386,836)"/>
<path d="M0 0 C4.3287037 2.36111111 4.3287037 2.36111111 6 5 C6.85918842 8.51748279 6.85918842 11.48251721 6 15 C4.24865652 17.76527917 3.02677226 18.34903331 0 20 C-4.4995893 20.80349809 -6.42168649 20.31544373 -10.4375 18.125 C-13.05817695 15.65266326 -13.52179741 13.55571474 -13.75 10 C-13.52179741 6.44428526 -13.05817695 4.34733674 -10.4375 1.875 C-6.42168649 -0.31544373 -4.4995893 -0.80349809 0 0 Z " fill="#F1F1F2" transform="translate(305,836)"/>
<path d="M0 0 C3.375 1.4375 3.375 1.4375 6 4 C7.15236366 7.08271903 7.45127448 9.73954187 7 13 C5.33976709 16.12590727 3.20773589 18.39613205 0 20 C-2.96395382 20.40417552 -5.08904926 20.56382171 -7.69140625 18.953125 C-9.88450678 17.15636794 -11.7209562 15.55808759 -13 13 C-13.12339449 8.43440376 -12.83352347 5.00513124 -9.875 1.4375 C-6.20774126 -0.39612937 -4.05973296 -0.56978708 0 0 Z " fill="#F3F3F4" transform="translate(875,795)"/>
<path d="M0 0 C2.85746217 1.26998319 4.48137263 2.2838003 6.3125 4.8125 C7.25846855 7.82239992 7.44072275 9.85198036 7 13 C5.17452064 15.92483867 3.13141589 18.43429205 0 20 C-4.63554388 20.41204834 -7.30416098 19.87454146 -11 17 C-13.35970471 13.23091535 -13.21255407 10.41905538 -12.59765625 6.12890625 C-12 4 -12 4 -9.875 1.4375 C-6.25075063 -0.37462469 -4.01026576 -0.50128322 0 0 Z " fill="#F3F3F3" transform="translate(427,795)"/>
<path d="M0 0 C3.33144108 2.01143612 5.30746955 3.29665489 6.7734375 6.90234375 C7.39419019 9.95340177 7.52957215 12.04015047 6 14.8125 C2.89219223 18.66026201 1.05545343 19.87888239 -3.8125 20.4375 C-7.5201344 20.38347254 -7.95596336 20.03761463 -11 17.4375 C-13.31178236 13.46412407 -13.65744119 11.51990817 -13 7 C-11.73001681 4.14253783 -10.7161997 2.51862737 -8.1875 0.6875 C-5.17760008 -0.25846855 -3.14801964 -0.44072275 0 0 Z " fill="#F0F0F0" transform="translate(794,712)"/>
<path d="M0 0 C2.57866282 0.6298701 3.70080431 1.22910257 5.5078125 3.14453125 C7.69825623 7.16034476 8.18631059 9.08244195 7.3828125 13.58203125 C5.02170139 17.91073495 5.02170139 17.91073495 2.3828125 19.58203125 C-1.13467029 20.44121967 -4.09970471 20.44121967 -7.6171875 19.58203125 C-10.38246667 17.83068777 -10.96622081 16.60880351 -12.6171875 13.58203125 C-13.42068559 9.08244195 -12.93263123 7.16034476 -10.7421875 3.14453125 C-7.6383661 -0.14551944 -4.35742746 -0.27965579 0 0 Z " fill="#F1F1F1" transform="translate(589.6171875,712.41796875)"/>
<path d="M0 0 C2.89962683 1.19122946 5.02398662 2.54838454 7 5 C7.85196499 8.16199086 7.7426279 10.82224339 7 14 C5.20606332 16.87029869 4.01736724 18.49131638 1 20 C-2.67329964 20.13357453 -5.49852959 20.1671568 -9 19 C-11.42624689 16.01918239 -12.85075594 13.79596829 -13.5625 10 C-12.76917613 5.76893936 -10.99780451 4.0691808 -8 1 C-5.08225221 -0.45887389 -3.25271895 -0.36823233 0 0 Z " fill="#F0F0F0" transform="translate(508,712)"/>
<path d="M0 0 C2.92937654 1.81310142 5.43647949 3.87295899 7 7 C7.42351789 10.81166103 7.32589594 12.5055372 5.1875 15.75 C2.33589821 18.68307613 0.73826095 19.91797101 -3.375 20.375 C-7.57753195 19.94025532 -9.08932948 18.99627847 -12 16 C-13.21260877 12.36217368 -13.39544552 9.82264001 -13 6 C-9.01674736 1.17816785 -6.28391573 -0.7250672 0 0 Z " fill="#F0F0F1" transform="translate(794,671)"/>
<path d="M0 0 C5.57894737 3.15789474 5.57894737 3.15789474 7 6 C7.3751455 10.97067782 7.15878799 14.05151502 4 18 C0.78446554 20.32849047 -2.11021377 20.54457007 -6 20 C-8.92483867 18.17452064 -11.43429205 16.13141589 -13 13 C-13.40417552 10.03604618 -13.56382171 7.91095074 -11.953125 5.30859375 C-8.15326689 0.67053165 -5.96513968 -0.57357112 0 0 Z " fill="#F1F1F1" transform="translate(712,671)"/>
<path d="M0 0 C4.3287037 2.36111111 4.3287037 2.36111111 6 5 C6.85918842 8.51748279 6.85918842 11.48251721 6 15 C4.24865652 17.76527917 3.02677226 18.34903331 0 20 C-4.4995893 20.80349809 -6.42168649 20.31544373 -10.4375 18.125 C-13.05817695 15.65266326 -13.52179741 13.55571474 -13.75 10 C-13.52179741 6.44428526 -13.05817695 4.34733674 -10.4375 1.875 C-6.42168649 -0.31544373 -4.4995893 -0.80349809 0 0 Z " fill="#F2F2F2" transform="translate(509,671)"/>
<path d="M0 0 C2.97672584 1.77280561 5.42804007 3.85608015 7 7 C7.42351789 10.81166103 7.32589594 12.5055372 5.1875 15.75 C2.59980618 18.41162793 0.91503749 19.877995 -2.8125 20.375 C-6.82317088 19.90315637 -8.89155197 18.53013212 -12 16 C-13.20190901 12.39427296 -13.32670315 9.7897565 -13 6 C-9.33404658 0.37887142 -6.67491925 -0.66749193 0 0 Z " fill="#F2F2F2" transform="translate(794,424)"/>
<path d="M0 0 C4.3287037 2.36111111 4.3287037 2.36111111 6 5 C6.85918842 8.51748279 6.85918842 11.48251721 6 15 C4.24865652 17.76527917 3.02677226 18.34903331 0 20 C-4.4995893 20.80349809 -6.42168649 20.31544373 -10.4375 18.125 C-13.05817695 15.65266326 -13.52179741 13.55571474 -13.75 10 C-13.52179741 6.44428526 -13.05817695 4.34733674 -10.4375 1.875 C-6.42168649 -0.31544373 -4.4995893 -0.80349809 0 0 Z " fill="#F3F3F3" transform="translate(509,424)"/>
<path d="M0 0 C2.97672584 1.77280561 5.42804007 3.85608015 7 7 C7.55643869 11.08055043 7.15667249 12.74051119 5 16.3125 C2.32322398 19.18643233 -0.11690478 20.02155709 -4 20.2421875 C-7.41566886 19.82857135 -9.47067886 18.22086734 -12 16 C-13.20190901 12.39427296 -13.32670315 9.7897565 -13 6 C-9.33404658 0.37887142 -6.67491925 -0.66749193 0 0 Z " fill="#F1F1F1" transform="translate(468,424)"/>
<path d="M0 0 C2.97046873 1.79023785 5.42502414 3.85004828 7 7 C7.4999473 10.07110483 7.43759994 12.16655584 5.9765625 14.94921875 C3.8793281 17.80539709 2.23858696 19.68126173 -1.26171875 20.58203125 C-4.92036347 20.74530961 -7.30824551 20.39775883 -10.5 18.5625 C-12.64389518 14.9000124 -13.2234599 11.23084083 -13 7 C-10.44313715 0.73737559 -6.6954724 -0.92351343 0 0 Z " fill="#F3F2F3" transform="translate(794,341)"/>
<path d="M0 0 C4.3287037 2.36111111 4.3287037 2.36111111 6 5 C6.85942202 8.51843913 6.85383549 11.4808132 6 15 C4.08098818 18.12882363 1.59739631 19.59831555 -2.00390625 20.50390625 C-6.05761434 20.8654324 -7.87078967 20.10498339 -11 17.5625 C-13.31309868 14.23100634 -13.79062548 11.13334125 -13.546875 7.125 C-13 5 -13 5 -10.4375 1.9375 C-6.41915413 -0.32738586 -4.53425456 -0.80968831 0 0 Z " fill="#F0F0F0" transform="translate(509,300)"/>
<path d="M0 0 C3 2 3 2 5 5 C5.8055735 10.07511305 5.55355511 11.96669713 3.125 16.5 C0.65261326 19.07128221 -1.48217516 19.51897867 -5 19.75 C-8.55571474 19.52179741 -10.65266326 19.05817695 -13.125 16.4375 C-15.29422604 12.46058559 -15.72953707 10.45828211 -15 6 C-11.32166843 0.16540509 -6.74169773 -1.12798834 0 0 Z " fill="#F3F4F4" transform="translate(714,960)"/>
<path d="M0 0 C2.92483867 1.82547936 5.43429205 3.86858411 7 7 C7.40417552 9.96395382 7.56382171 12.08904926 5.953125 14.69140625 C4.15636794 16.88450678 2.55808759 18.7209562 0 20 C-4.56559624 20.12339449 -7.99486876 19.83352347 -11.5625 16.875 C-13.37462469 13.25075063 -13.50128322 11.01026576 -13 7 C-11.73001681 4.14253783 -10.7161997 2.51862737 -8.1875 0.6875 C-5.17760008 -0.25846855 -3.14801964 -0.44072275 0 0 Z " fill="#F3F3F3" transform="translate(631,877)"/>
<path d="M0 0 C2.91817239 1.84341426 5.43102312 3.86204624 7 7 C7.41204834 11.63554388 6.87454146 14.30416098 4 18 C0.57840405 20.56619697 -2.84844133 20.50984054 -7 20 C-9.63016161 17.8272578 -11.47336894 16.05326212 -13 13 C-13.13862367 9.87795382 -12.86492214 7.00587139 -12 4 C-8.25977303 0.43373708 -5.12794301 -0.96148931 0 0 Z " fill="#F2F2F2" transform="translate(590,836)"/>
<path d="M0 0 C1.17369141 0.10054687 1.17369141 0.10054687 2.37109375 0.203125 C5.01480057 0.86287358 5.95507562 1.56390285 7.5625 3.75 C8.8045849 7.94793252 9.01900316 11.62075535 7.375 15.6875 C4.63377836 18.80682117 2.77131424 19.56605001 -1.3125 20.1875 C-5.7057371 19.57244681 -7.28315969 17.83098355 -10.4375 14.75 C-11.88897903 11.84704195 -11.80989025 9.97738221 -11.4375 6.75 C-8.41148659 1.86095595 -5.78152102 -0.56960798 0 0 Z " fill="#F2F2F2" transform="translate(832.4375,795.25)"/>
<path d="M0 0 C3.28167013 3.12903431 3.65604955 4.95993312 3.859375 9.375 C3.61474811 12.48843316 2.7400295 14.22686298 0.6875 16.5625 C-2.52803446 18.89099047 -5.42271377 19.10707007 -9.3125 18.5625 C-12.23733867 16.73702064 -14.74679205 14.69391589 -16.3125 11.5625 C-16.72454834 6.92695612 -16.18704146 4.25833902 -13.3125 0.5625 C-8.9688722 -2.58288565 -4.73797209 -2.0561011 0 0 Z " fill="#F2F2F2" transform="translate(389.3125,796.4375)"/>
<path d="M0 0 C3.0625 1.9375 3.0625 1.9375 5 5 C5.69022545 8.15450142 5.73034598 10.85038296 5 14 C2.10799895 17.65305395 -0.11040837 19.74232841 -4.75 20.375 C-8.20013544 19.97690745 -10.28141646 19.13490565 -12.85546875 16.7578125 C-14.81866791 13.74266021 -14.74894946 10.89502468 -14.5078125 7.3828125 C-14 5 -14 5 -12.0625 1.875 C-7.93317893 -0.65315576 -4.72053082 -1.03288287 0 0 Z " fill="#F1F1F1" transform="translate(347,795)"/>
<path d="M0 0 C3.788383 1.72199227 5.47957937 3.15748241 7 7 C7.26649565 10.15353187 6.94263547 12.97802157 6 16 C2.83943987 19.0853087 0.77988326 19.87686054 -3.5625 20.5625 C-7.88982776 19.85439182 -9.28197669 18.35755821 -12 15 C-13.45147903 12.09704195 -13.37239025 10.22738221 -13 7 C-9.55818378 1.43915514 -6.51289739 -0.51081548 0 0 Z " fill="#F1F1F2" transform="translate(590,671)"/>
<path d="M0 0 C4.3287037 2.36111111 4.3287037 2.36111111 6 5 C6.85918842 8.51748279 6.85918842 11.48251721 6 15 C4.24865652 17.76527917 3.02677226 18.34903331 0 20 C-4.4995893 20.80349809 -6.42168649 20.31544373 -10.4375 18.125 C-13.05817695 15.65266326 -13.52179741 13.55571474 -13.75 10 C-13.52179741 6.44428526 -13.05817695 4.34733674 -10.4375 1.875 C-6.42168649 -0.31544373 -4.4995893 -0.80349809 0 0 Z " fill="#F0F0F0" transform="translate(509,465)"/>
<path d="M0 0 C2.99559257 1.29011865 3.81502626 2.32340716 6 5 C6.85674414 8.20121292 6.85116976 10.79798044 6 14 C3.34581105 17.33475022 1.86474757 18.5747067 -2.2265625 19.5078125 C-6.7559845 19.85622958 -8.49439243 19.42305939 -12.0625 16.4375 C-14.30625709 12.45664064 -14.73540053 10.49411434 -14 6 C-10.28705559 0.30681857 -6.72433463 -1.05846008 0 0 Z " fill="#F1F1F1" transform="translate(713,259)"/>
<path d="M0 0 C4.04187444 0.92892202 5.58119382 2.25588037 8.2265625 5.51171875 C8.96243895 8.34113518 8.91413065 10.67550011 8.2265625 13.51171875 C6.43292339 16.32175335 5.20775315 18.02112343 2.2265625 19.51171875 C-0.8560713 19.9901629 -3.69778512 20.06321504 -6.7734375 19.51171875 C-10.3729109 16.49991448 -11.57427898 14.62700644 -12.3984375 10.01171875 C-11.08521659 2.65768166 -7.27446696 -0.54740972 0 0 Z " fill="#F3F3F3" transform="translate(547.7734375,959.48828125)"/>
<path d="M0 0 C3.18309742 0.66877198 5.64392207 2.11657832 7.93359375 4.40625 C8.48778904 9.31224112 8.67479097 13.19562787 6.05859375 17.46875 C3.51783206 19.78532684 2.55122153 20.35134975 -0.87890625 20.65625 C-4.50805781 20.37161066 -6.2093679 19.62839094 -9.06640625 17.40625 C-11.63830304 13.97705428 -11.56854825 10.56685514 -11.06640625 6.40625 C-8.08549965 1.28281678 -5.76477287 -0.43589965 0 0 Z " fill="#F0F0F0" transform="translate(466.06640625,959.59375)"/>
<path d="M0 0 C4.34326067 2.36905127 4.34326067 2.36905127 6 5 C6.78857109 8.48661075 6.80636952 11.51554194 6 15 C3.10372506 18.12492823 0.46765686 19.79986497 -3.75 20.375 C-7.19887206 19.97705322 -9.28100777 19.13795577 -11.8515625 16.7578125 C-13.82358394 13.73941233 -13.80825044 10.90762314 -13.58203125 7.3828125 C-12.95216115 4.80414968 -12.35292868 3.68200819 -10.4375 1.875 C-6.42168649 -0.31544373 -4.4995893 -0.80349809 0 0 Z " fill="#F4F3F4" transform="translate(957,795)"/>
<path d="M0 0 C3.5625 0.375 3.5625 0.375 6.5 2.3125 C8.91066653 5.89197455 9.28842466 7.98266269 9.0625 12.21875 C8.26250747 15.66871778 6.30657005 17.28427996 3.5625 19.375 C0.65954195 20.82647903 -1.21011779 20.74739025 -4.4375 20.375 C-8.73539012 17.90769271 -8.73539012 17.90769271 -10.4375 15.375 C-11.40743176 11.0142499 -10.89252731 7.46706555 -9.1875 3.375 C-6.35129782 0.13362607 -4.18066232 0.45607225 0 0 Z " fill="#EFEFF0" transform="translate(343.4375,753.625)"/>
<path d="M0 0 C2.57866282 0.6298701 3.70080431 1.22910257 5.5078125 3.14453125 C7.67703854 7.12144566 8.11234957 9.12374914 7.3828125 13.58203125 C5.58718845 16.33532146 4.33026328 18.10830586 1.3828125 19.58203125 C-1.6998213 20.0604754 -4.54153512 20.13352754 -7.6171875 19.58203125 C-11.2166609 16.57022698 -12.41802898 14.69731894 -13.2421875 10.08203125 C-12.62321515 6.6157861 -11.82374491 4.2909821 -9.375 1.6953125 C-6.34537534 -0.22344978 -3.51023028 -0.22528344 0 0 Z " fill="#F1F1F1" transform="translate(589.6171875,547.41796875)"/>
<path d="M0 0 C3.0625 2 3.0625 2 5 5 C5.73301898 9.61801955 5.71565523 12.58960049 3.0625 16.5 C-0.52218485 19.42627335 -2.33490235 19.82462285 -6.84375 19.5390625 C-10.24420198 18.6889495 -11.89684555 16.69466664 -14 14 C-14.33 13.67 -14.66 13.34 -15 13 C-15.40038554 8.83599038 -15.44184328 6.67749304 -13.125 3.125 C-9.25496673 -0.74503327 -5.26098528 -0.78007713 0 0 Z " fill="#F1F1F1" transform="translate(714,548)"/>
<path d="M0 0 C3.4375 1.9375 3.4375 1.9375 6 5 C6.74526995 8.14606321 6.6855981 10.84624876 6 14 C4.20606332 16.87029869 3.01736724 18.49131638 0 20 C-7.24087591 20.58394161 -7.24087591 20.58394161 -10.4375 18.125 C-13.25370672 14.29495887 -13.32273441 11.76033254 -13 7 C-10.11285364 0.81325779 -6.74979653 -0.80082332 0 0 Z " fill="#F1F1F1" transform="translate(509,506)"/>
<path d="M0 0 C2.76686072 1.74619654 3.35040369 2.9757401 5 6 C5.625 9.5625 5.625 9.5625 5 13 C1.57216071 17.14948967 -0.46421293 18.84893898 -5.8125 19.375 C-9.16084564 19.30791111 -10.03191618 18.97938747 -13 17.0625 C-15.33161951 13.49220762 -15.74887369 11.35500849 -15.46875 7.16015625 C-15 5 -15 5 -13.125 1.9375 C-8.73805744 -0.78240438 -5.02773185 -1.15390567 0 0 Z " fill="#F1F1F1" transform="translate(918,919)"/>
<path d="M0 0 C3.375 1.8125 3.375 1.8125 6 4 C6 4.99 6 5.98 6 7 C6.66 7 7.32 7 8 7 C8.47721841 11.00863462 8.12859671 12.78014111 6.0625 16.3125 C3.19784976 19.38874372 0.36000356 20.10934767 -3.7734375 20.2890625 C-7.94998321 19.74684428 -9.36820997 18.30660799 -12 15 C-12.97862326 10.94686866 -12.40245586 7.88156999 -10.6875 4.125 C-7.49006788 0.09860399 -4.96490613 -0.5841066 0 0 Z " fill="#F1F1F2" transform="translate(304,877)"/>
<path d="M0 0 C4.92293178 0.4842228 6.64569948 1.59028719 9.8125 5.375 C10.55776995 8.52106321 10.4980981 11.22124876 9.8125 14.375 C8.01856332 17.24529869 6.82986724 18.86631638 3.8125 20.375 C-0.58684481 20.88261671 -2.72975386 20.63300237 -6.625 18.4375 C-9.62583837 14.85113219 -10.01468291 13.08051965 -9.7265625 8.53125 C-8.8764495 5.13079802 -6.88216664 3.47815445 -4.1875 1.375 C-3.1875 0.375 -3.1875 0.375 0 0 Z " fill="#F4F4F4" transform="translate(912.1875,835.625)"/>
<path d="M0 0 C2.5625 1.5625 2.5625 1.5625 4 4 C4.59504211 9.35537896 4.45484378 12.64945598 1 17 C-2.76875875 19.51250583 -4.53150134 19.53016086 -9 19 C-13.3287037 16.63888889 -13.3287037 16.63888889 -15 14 C-16.01058382 9.86271052 -16.14542439 5.96910036 -13.95703125 2.20703125 C-9.78968445 -1.96031555 -5.22098216 -1.6049319 0 0 Z " fill="#F1F1F2" transform="translate(674,796)"/>
<path d="M0 0 C2.85746217 1.26998319 4.48137263 2.2838003 6.3125 4.8125 C7.25846855 7.82239992 7.44072275 9.85198036 7 13 C5.17452064 15.92483867 3.13141589 18.43429205 0 20 C-2.96395382 20.40417552 -5.08904926 20.56382171 -7.69140625 18.953125 C-11.01705018 16.22850106 -12.82415198 14.54746256 -13.3125 10.25 C-12.92220973 6.19098115 -11.50412622 4.16698316 -9 1 C-5.93570224 -0.53214888 -3.3834358 -0.22938548 0 0 Z " fill="#F2F2F3" transform="translate(590,795)"/>
<path d="M0 0 C5.57894737 3.15789474 5.57894737 3.15789474 7 6 C7.45269417 10.52694175 7.69261379 13.70504096 5 17.5 C1.86877174 20.10935688 0.09973245 20.86918866 -3.99609375 20.50390625 C-7.59739631 19.59831555 -10.08098818 18.12882363 -12 15 C-12.85360793 11.48175112 -12.86477218 8.5167402 -12 5 C-9.11904916 0.59038136 -5.12483767 -0.96090706 0 0 Z " fill="#F1F1F2" transform="translate(671,671)"/>
<path d="M0 0 C2.92152702 1.8344472 5.4326609 3.86532181 7 7 C7.40417552 9.96395382 7.56382171 12.08904926 5.953125 14.69140625 C4.15636794 16.88450678 2.55808759 18.7209562 0 20 C-2.05859375 19.984375 -2.05859375 19.984375 -4.4375 19.75 C-5.61119141 19.64945313 -5.61119141 19.64945313 -6.80859375 19.546875 C-9.4537948 18.88675353 -10.39675374 18.19209288 -12 16 C-12.58203125 13.87890625 -12.58203125 13.87890625 -12.8125 11.5625 C-12.94591797 10.41974609 -12.94591797 10.41974609 -13.08203125 9.25390625 C-12.98669935 6.63454867 -12.39272159 5.20474909 -11 3 C-7.34085646 0.15399947 -4.60021906 -0.75105617 0 0 Z " fill="#F2F2F3" transform="translate(631,671)"/>
<path d="M0 0 C2.92810762 1.81651121 5.43591638 3.87183276 7 7 C7.42351789 10.81166103 7.32589594 12.5055372 5.1875 15.75 C2.56107928 18.45146132 0.9237259 19.89959501 -2.875 20.3125 C-6.4340209 19.95659791 -8.1892806 19.18611509 -11 17 C-13.56570589 13.57905881 -13.43708054 10.15226516 -13 6 C-9.6162951 0.63274396 -6.27574982 -0.73832351 0 0 Z " fill="#F4F4F4" transform="translate(631,589)"/>
<path d="M0 0 C2.80915461 1.27688846 4.50106764 2.31099817 6.3125 4.8125 C7.58476509 8.86061621 7.50914951 11.87987109 5.75 15.75 C2.94607081 19.35505181 1.07144449 19.86363434 -3.4375 20.4375 C-7.91903826 19.88713565 -9.20852117 18.44829737 -12 15 C-13.45147903 12.09704195 -13.37239025 10.22738221 -13 7 C-9.55818378 1.43915514 -6.51289739 -0.51081548 0 0 Z " fill="#F0F0F0" transform="translate(753,465)"/>
<path d="M0 0 C3.87832274 0.92233016 5.42507928 2.38197014 8.00390625 5.4765625 C8.98519502 9.49903546 8.38689575 12.59568666 6.75390625 16.3515625 C4.07700168 19.60208948 2.19823658 20.29868351 -1.93359375 20.9140625 C-6.01858998 20.33049161 -7.37072669 18.55199249 -9.99609375 15.4765625 C-10.32609375 15.1465625 -10.65609375 14.8165625 -10.99609375 14.4765625 C-11.6784532 9.75853431 -11.63711881 6.45813212 -8.99609375 2.4140625 C-5.87280185 0.39693648 -3.73709412 -0.26946789 0 0 Z " fill="#F0F0F1" transform="translate(669.99609375,258.5234375)"/>
<path d="M0 0 C2.8100346 1.79363911 4.50940468 3.01880935 6 6 C6.39447548 10.18144011 6.45035186 12.30946048 4.125 15.875 C1.29882359 18.70117641 -0.41072106 19.22109882 -4.3125 19.4375 C-8.2532569 19.38665152 -8.8479291 19.127243 -12.0625 16.4375 C-14.30625709 12.45664064 -14.73540053 10.49411434 -14 6 C-10.26747896 0.27680107 -6.74763808 -0.96948823 0 0 Z " fill="#F1F1F1" transform="translate(754,259)"/>
<path d="M0 0 C3.38939556 2.13679285 4.72582557 3.1774767 6 7 C6.50471432 11.45830982 6.28081782 13.51734437 4 17.4375 C1 20 1 20 -2.9375 20.6875 C-6.5085346 20.36902063 -9.27279396 19.30500581 -11.921875 16.7578125 C-13.78694356 13.71693985 -13.80641177 10.87897408 -13.58203125 7.3828125 C-12.95216115 4.80414968 -12.35292868 3.68200819 -10.4375 1.875 C-6.46058559 -0.29422604 -4.45828211 -0.72953707 0 0 Z " fill="#F2F2F3" transform="translate(672,217)"/>
<path d="M0 0 C2.75410956 1.91368025 4.49515875 4.00781565 6 7 C6.24141669 11.66738925 5.56689482 13.34807096 2.5 16.875 C1.675 17.57625 0.85 18.2775 0 19 C-0.33 19.33 -0.66 19.66 -1 20 C-3.95224072 20.41194057 -6.09957373 20.5560236 -8.6953125 18.953125 C-10.8851512 17.15470674 -12.72160534 15.55678931 -14 13 C-14.39447548 8.81855989 -14.45035186 6.69053952 -12.125 3.125 C-8.58783565 -0.41216435 -4.86163893 -1.08735362 0 0 Z " fill="#F1F1F2" transform="translate(795,960)"/>
<path d="M0 0 C2.94426038 1.71267434 3.35505233 2.76682699 5 6 C5.30184603 9.94412151 5.16860705 13.54920091 2.625 16.70703125 C-0.5841876 19.26049543 -4.07039494 19.35368614 -8.0625 19.265625 C-10 19 -10 19 -12.4375 17.5625 C-14.73369148 13.79674598 -15.40986488 10.39466229 -15 6 C-11.66843815 -0.54824226 -7.07579634 -1.70236017 0 0 Z " fill="#F4F4F5" transform="translate(592,919)"/>
<path d="M0 0 C4.32373272 2.40207373 4.32373272 2.40207373 6 5 C6.87297722 9.39327561 6.99508168 13.34153053 4.65234375 17.24609375 C2.07951412 19.97706421 -0.1866402 20.02107228 -3.875 20.4375 C-7.55603034 20.38316745 -7.97056602 20.02514152 -11 17.4375 C-13.33913408 13.41711329 -13.81591827 11.56914233 -13 7 C-9.66021505 1.52373497 -6.45056446 -0.7442959 0 0 Z " fill="#F2F1F2" transform="translate(468,918)"/>
<path d="M0 0 C2.6008798 0.63956061 3.70311428 1.26186342 5.5078125 3.2109375 C7.56022317 6.9052767 8.15686909 8.45763567 7.3828125 12.5859375 C4.25973558 18.29362981 4.25973558 18.29362981 0.3828125 19.5859375 C-4.75196751 20.16567073 -4.75196751 20.16567073 -7.6171875 19.5859375 C-11.1513061 16.5672112 -12.42453144 14.66481144 -13.2421875 10.0859375 C-12.62321515 6.61969235 -11.82374491 4.29488835 -9.375 1.69921875 C-6.34593084 -0.21919172 -3.50975882 -0.22001473 0 0 Z " fill="#F2F2F3" transform="translate(263.6171875,918.4140625)"/>
<path d="M0 0 C4.09131007 0.9331058 5.57237355 2.17306228 8.2265625 5.5078125 C8.94914412 8.65580374 8.92735639 11.35718451 8.2265625 14.5078125 C6.02824886 17.53996925 4.77693056 18.32435648 1.2265625 19.5078125 C-2.1484375 19.8828125 -2.1484375 19.8828125 -5.7734375 19.5078125 C-8.6484375 17.0703125 -8.6484375 17.0703125 -10.7734375 14.5078125 C-11.1034375 14.1778125 -11.4334375 13.8478125 -11.7734375 13.5078125 C-12.28881778 9.12708009 -12.02188736 6.94861064 -9.8359375 3.0703125 C-6.26782993 0.08475311 -4.529422 -0.34841708 0 0 Z " fill="#F2F2F2" transform="translate(710.7734375,918.4921875)"/>
<path d="M0 0 C2.51419358 1.89531516 2.98039848 2.94119543 4 6 C4.38887761 10.19987818 4.45908323 12.29607238 2.125 15.875 C-0.69082107 18.69082107 -1.39486658 18.97799515 -5.4375 19.125 C-9 19 -9 19 -12 18 C-14.23397426 15.45575154 -15.87963533 13.42522713 -16.171875 9.96484375 C-15.90346278 6.70119515 -15.20722009 4.37676381 -13.625 1.5 C-9.40635288 -0.9106555 -4.73891871 -0.80308393 0 0 Z " fill="#F6F6F6" transform="translate(511,919)"/>
<path d="M0 0 C5.70769231 3.12307692 5.70769231 3.12307692 7 7 C7.57973323 12.13478001 7.57973323 12.13478001 7 15 C3.9812737 18.5341186 2.07887394 19.80734394 -2.5 20.625 C-5.96624515 20.00602765 -8.29104915 19.20655741 -10.88671875 16.7578125 C-12.80512922 13.72874334 -12.80595223 10.89257132 -12.5859375 7.3828125 C-11.94637689 4.7819327 -11.32407408 3.67969822 -9.375 1.875 C-5.6806608 -0.17741067 -4.12830183 -0.77405659 0 0 Z " fill="#F2F2F2" transform="translate(508,836)"/>
<path d="M0 0 C4.35212994 2.37388906 4.35212994 2.37388906 6 5 C6.73345601 8.46571961 6.70323924 11.53068642 6 15 C4.11484777 17.57637471 2.80665143 18.59667428 0 20 C-3.91093991 20.3689566 -6.33546589 20.33226705 -9.875 18.5625 C-12.87942161 14.939521 -13.29851972 11.64364014 -13 7 C-10.33701924 0.74199522 -6.62350422 -0.78583948 0 0 Z " fill="#F2F2F2" transform="translate(468,836)"/>
<path d="M0 0 C3.5 1.3125 3.5 1.3125 6 4 C7.00147183 8.39835601 7.32542035 12.89014719 4.8515625 16.828125 C2.35788625 19.12389043 0.19672127 19.97245902 -3.125 20.4375 C-7.22224846 19.81400567 -9.09333411 19.10095144 -11.75 15.875 C-13.38527619 12.11386476 -13.84601964 9.0348629 -13 5 C-9.60261645 -0.09607533 -5.86947951 -1.16703101 0 0 Z " fill="#F1F0F1" transform="translate(916,754)"/>
<path d="M0 0 C4.04187444 0.92892202 5.58119382 2.25588037 8.2265625 5.51171875 C8.96243895 8.34113518 8.91413065 10.67550011 8.2265625 13.51171875 C6.43292339 16.32175335 5.20775315 18.02112343 2.2265625 19.51171875 C-2.77035397 19.88884452 -5.76411475 19.60462487 -9.7734375 16.51171875 C-12.28594333 12.74296 -12.30359836 10.98021741 -11.7734375 6.51171875 C-8.71634617 1.08784703 -6.02044331 -0.45304339 0 0 Z " fill="#F2F2F2" transform="translate(710.7734375,712.48828125)"/>
<path d="M0 0 C2.80664993 1.64291703 3.60644452 2.77502598 4.58984375 5.8359375 C5.40544435 9.89063763 5.1766881 11.65293408 3.25 15.4375 C0.27447094 18.82629699 -1.41789443 18.9342784 -5.875 19.4375 C-9.55603034 19.38316745 -9.97056602 19.02514152 -13 16.4375 C-15.29496075 12.4930362 -15.58165309 10.48703816 -15 6 C-12.52735468 -1.03752898 -6.4518898 -0.82499574 0 0 Z " fill="#F4F4F4" transform="translate(633,713)"/>
<path d="M0 0 C2.5625 1.5625 2.5625 1.5625 4 4 C4.59504211 9.35537896 4.45484378 12.64945598 1 17 C-2.76875875 19.51250583 -4.53150134 19.53016086 -9 19 C-13.3287037 16.63888889 -13.3287037 16.63888889 -15 14 C-16.01058382 9.86271052 -16.14542439 5.96910036 -13.95703125 2.20703125 C-9.78968445 -1.96031555 -5.22098216 -1.6049319 0 0 Z " fill="#F3F3F3" transform="translate(674,590)"/>
<path d="M0 0 C2.3125 0.53515625 2.3125 0.53515625 4.875 2.91015625 C7.02980053 6.8450094 7.75971539 8.97355925 7.3125 13.53515625 C5.51256226 16.23506287 4.228727 18.07704275 1.3125 19.53515625 C-1.7701338 20.0136004 -4.61184762 20.08665254 -7.6875 19.53515625 C-11.2869734 16.52335198 -12.48834148 14.65044394 -13.3125 10.03515625 C-12.6935237 6.56888895 -11.88997002 4.24613432 -9.44921875 1.64453125 C-6.40974759 -0.26945946 -3.51084632 -0.20375447 0 0 Z " fill="#F2F2F2" transform="translate(630.6875,547.46484375)"/>
<path d="M0 0 C3.5386994 1.65139305 4.81070153 2.71605229 7 6 C7.5796548 10.38881489 7.25909801 12.52498699 5.125 16.4375 C2.65266326 19.05817695 0.55571474 19.52179741 -3 19.75 C-6.48842411 19.51535264 -8.68526112 19.06473888 -11.1875 16.5625 C-13.23062775 12.54669718 -13.49609099 10.41256443 -12.703125 6.05859375 C-10.61446154 -0.05654872 -5.79807778 -0.72475972 0 0 Z " fill="#F1F1F1" transform="translate(753,383)"/>
<path d="M0 0 C2.92937654 1.81310142 5.43647949 3.87295899 7 7 C7.41204834 11.63554388 6.87454146 14.30416098 4 18 C0.98411666 19.90510832 -1.04226845 20.2234915 -4.5625 19.8125 C-5.32691406 19.73644531 -6.09132813 19.66039062 -6.87890625 19.58203125 C-9.44940377 18.87668294 -10.40952666 18.12707681 -12 16 C-13.00832682 12.99220693 -13.28509594 10.15757198 -13 7 C-10.04932007 1.36688376 -6.22925322 -0.71875999 0 0 Z " fill="#F4F4F4" transform="translate(631,217)"/>
<path d="M0 0 C2.57866282 0.6298701 3.70080431 1.22910257 5.5078125 3.14453125 C7.69825623 7.16034476 8.18631059 9.08244195 7.3828125 13.58203125 C5.3828125 17.01953125 5.3828125 17.01953125 2.3828125 19.58203125 C-1.19052942 20.38161073 -4.41842226 19.93842092 -7.9296875 18.89453125 C-11.18933092 16.35925303 -12.43209485 13.66945055 -13.1171875 9.64453125 C-12.58139128 6.3627794 -11.65530654 4.19319981 -9.375 1.73046875 C-6.35659983 -0.24155269 -3.52481064 -0.22621919 0 0 Z " fill="#F2F2F2" transform="translate(996.6171875,918.41796875)"/>
<path d="M0 0 C4.04187444 0.92892202 5.58119382 2.25588037 8.2265625 5.51171875 C8.96243895 8.34113518 8.91413065 10.67550011 8.2265625 13.51171875 C6.43292339 16.32175335 5.20775315 18.02112343 2.2265625 19.51171875 C-5.38168492 19.93439916 -5.38168492 19.93439916 -8.7734375 17.51171875 C-11.30878445 15.0669199 -11.75105576 13.66279549 -12.2734375 10.13671875 C-11.24425016 2.67511053 -7.28426835 -0.54814728 0 0 Z " fill="#F2F2F2" transform="translate(547.7734375,918.48828125)"/>
<path d="M0 0 C2.53811231 0.61064241 3.74056543 1.17806543 5.57421875 3.01171875 C7.63769592 7.0675187 7.68011 9.13829957 7.07421875 13.5234375 C6.25081575 15.97961121 5.45487437 17.02074112 3.38671875 18.57421875 C-0.83499051 19.82333872 -4.48830025 20.05293407 -8.55078125 18.32421875 C-11.51553692 15.80866848 -12.53936382 14.13387931 -13.05078125 10.26171875 C-12.6160308 6.59739357 -11.93525279 4.40550858 -9.37109375 1.6875 C-6.34163622 -0.23115643 -3.50974929 -0.23608179 0 0 Z " fill="#F4F4F4" transform="translate(874.61328125,918.42578125)"/>
<path d="M0 0 C2.81688642 1.64890912 3.63560511 2.7708088 4.5546875 5.87109375 C5.21153203 9.41671371 5.2069254 11.49902272 3.8125 14.875 C0.71769036 18.50339751 -1.16970649 18.8945659 -5.9375 19.5 C-9.57022101 19.39814801 -10.00947805 18.99190417 -13 16.4375 C-15.31178236 12.46412407 -15.65744119 10.51990817 -15 6 C-11.68234978 -0.93690501 -7.14145406 -0.79605869 0 0 Z " fill="#F1F1F1" transform="translate(796,919)"/>
<path d="M0 0 C2.94426038 1.71267434 3.35505233 2.76682699 5 6 C5.30184603 9.94412151 5.16860705 13.54920091 2.625 16.70703125 C-0.92094354 19.52844305 -4.66178309 19.37398422 -9 19 C-12.10639345 17.44680328 -13.56773236 16.2655836 -14.703125 12.94140625 C-15.49609099 8.58743557 -15.23062775 6.45330282 -13.1875 2.4375 C-9.50190734 -1.24809266 -4.8383399 -1.16405232 0 0 Z " fill="#F4F4F4" transform="translate(877,878)"/>
<path d="M0 0 C2.87029869 1.79393668 4.49131638 2.98263276 6 6 C6.40417552 8.96395382 6.56382171 11.08904926 4.953125 13.69140625 C2.00246978 17.2929413 0.37423651 18.84143425 -4.25 19.375 C-9.10091677 18.88990832 -10.84690996 17.69142249 -14 14 C-15.00621189 9.90917134 -14.39192542 6.83729522 -12.625 3.0625 C-9.38041342 -1.05562912 -4.8847605 -0.632741 0 0 Z " fill="#F1F1F2" transform="translate(795,878)"/>
<path d="M0 0 C2.5647293 1.50012468 4.89183465 2.89183465 7 5 C7.58527703 9.00062781 8.09572906 13.2233536 5.90625 16.7734375 C3.28336675 19.18704815 0.9676184 20.00578243 -2.5 20.625 C-7.07887394 19.80734394 -8.9812737 18.5341186 -12 15 C-12.99442198 10.95710407 -12.39803266 7.87188107 -10.6875 4.125 C-7.49006788 0.09860399 -4.96490613 -0.5841066 0 0 Z " fill="#F2F2F2" transform="translate(956,836)"/>
<path d="M0 0 C2.92937654 1.81310142 5.43647949 3.87295899 7 7 C7.41204834 11.63554388 6.87454146 14.30416098 4 18 C0.78477863 20.32826375 -2.10830425 20.39711181 -6 20 C-8.80915461 18.72311154 -10.50106764 17.68900183 -12.3125 15.1875 C-13.25846855 12.17760008 -13.44072275 10.14801964 -13 7 C-9.59903504 1.55087026 -6.47839628 -0.74750726 0 0 Z " fill="#F4F4F4" transform="translate(875,836)"/>
<path d="M0 0 C4.6 2.2 4.6 2.2 6 5 C6.55512815 9.63213493 6.6364242 12.98172127 4.125 17 C1.63201413 19.34633964 0.64569126 19.92662599 -2.75 20.3125 C-6.83140958 19.92005677 -8.84684973 18.56651766 -12 16 C-13.20190901 12.39427296 -13.32670315 9.7897565 -13 6 C-9.27625236 0.29025362 -6.72149163 -0.45569435 0 0 Z " fill="#F3F3F3" transform="translate(468,795)"/>
<path d="M0 0 C5.53846154 3.07692308 5.53846154 3.07692308 7 6 C7.50312928 10.36045376 7.24536764 12.55015933 5.125 16.4375 C2.65266326 19.05817695 0.55571474 19.52179741 -3 19.75 C-6.55571474 19.52179741 -8.65266326 19.05817695 -11.125 16.4375 C-13.29422604 12.46058559 -13.72953707 10.45828211 -13 6 C-9.30298192 0.33123894 -6.70067405 -0.5583895 0 0 Z " fill="#F4F4F3" transform="translate(753,754)"/>
<path d="M0 0 C2.92810762 1.81651121 5.43591638 3.87183276 7 7 C7.42351789 10.81166103 7.32589594 12.5055372 5.1875 15.75 C2.60869478 18.40248537 0.8849148 19.86234659 -2.8125 20.4375 C-6.22055714 19.96972745 -8.25393022 19.0428641 -10.79296875 16.69140625 C-13.12203537 13.42769801 -13.43991971 9.91670451 -13 6 C-9.81391811 0.53814534 -6.18242741 -0.7273444 0 0 Z " fill="#F1F2F2" transform="translate(427,754)"/>
<path d="M0 0 C4.31473644 2.3970758 4.31473644 2.3970758 6 5 C6.73876341 8.46435267 6.70310506 11.53134839 6 15 C4.11484777 17.57637471 2.80665143 18.59667428 0 20 C-2.05859375 19.984375 -2.05859375 19.984375 -4.4375 19.75 C-5.61119141 19.64945312 -5.61119141 19.64945312 -6.80859375 19.546875 C-9.45230057 18.88712642 -10.39257562 18.18609715 -12 16 C-13.2420849 11.80206748 -13.45650316 8.12924465 -11.8125 4.0625 C-8.36280739 0.13698771 -5.19181082 -0.72685352 0 0 Z " fill="#F2F2F2" transform="translate(468,465)"/>
<path d="M0 0 C2.1875 1.625 2.1875 1.625 3.1875 3.625 C3.74933086 7.64315744 4.3165024 11.85531803 2.05859375 15.39453125 C-0.4265471 17.64608184 -2.59199125 18.58899857 -5.875 19.125 C-9.8999193 18.43990735 -12.58972178 17.19714342 -15.125 13.9375 C-16.15732232 10.46514309 -16.42315796 7.20801717 -15.8125 3.625 C-11.80906436 -1.75893069 -6.01226002 -2.93932712 0 0 Z " fill="#F2F2F2" transform="translate(470.8125,384.375)"/>
<path d="M0 0 C4.33764633 2.36598891 4.33764633 2.36598891 6 5 C6.80208978 8.49481977 6.75743355 11.49973888 6 15 C3.9375 18.125 3.9375 18.125 1 20 C-2.94688882 20.56384126 -5.19996903 20.37334779 -8.8125 18.6875 C-11 17 -11 17 -13 14 C-13.49359386 9.63992093 -13.27521864 7.49539354 -11.125 3.625 C-7.74540931 -0.5497885 -5.27672463 -0.52767246 0 0 Z " fill="#F1F0F1" transform="translate(468,341)"/>
<path d="M0 0 C2.9375 2 2.9375 2 5 5 C5.6826506 9.7785542 5.41690372 12.00305632 3.5625 16.4375 C0.44853043 19.55146957 -1.49418922 20.08185048 -5.80859375 20.31640625 C-9.36690225 19.80263978 -10.89863473 17.75804192 -13 15 C-13.33 14.67 -13.66 14.34 -14 14 C-14.54003583 9.63544812 -14.82152749 6.13314137 -12.1875 2.5 C-8.20283835 -0.23233942 -4.73634348 -0.48996657 0 0 Z " fill="#F2F2F2" transform="translate(673,960)"/>
<path d="M0 0 C2.62902168 3.26636027 2.66433132 5.28018208 2.421875 9.375 C1.78871451 13.2290204 0.39966902 15.59420519 -2.75 17.875 C-5.70382924 18.80334633 -7.853282 18.94015935 -10.9375 18.5625 C-14.27511045 16.41159549 -15.67220933 15.35837201 -16.9375 11.5625 C-17.51118942 4.33401335 -17.51118942 4.33401335 -15.125 1.125 C-10.3693532 -2.27189057 -5.21704524 -2.55302214 0 0 Z " fill="#F2F2F2" transform="translate(308.9375,961.4375)"/>
<path d="M0 0 C3.16872216 0.68885264 4.96142228 2.13674555 7.15625 4.46875 C8.58929064 7.33483129 8.46269155 9.28175783 8.15625 12.46875 C5.03317308 18.17644231 5.03317308 18.17644231 1.15625 19.46875 C-5.89484489 20.02836071 -5.89484489 20.02836071 -9.28125 18.03125 C-11.57536821 14.26889613 -12.2609119 10.86032708 -11.84375 6.46875 C-9.6653487 0.86877597 -5.58896318 -0.37259755 0 0 Z " fill="#F3F3F4" transform="translate(425.84375,918.53125)"/>
<path d="M0 0 C3.16872216 0.68885264 4.96142228 2.13674555 7.15625 4.46875 C8.72560594 7.60746188 8.50826103 10.00730822 8.15625 13.46875 C5.9835078 16.09891161 4.20951212 17.94211894 1.15625 19.46875 C-2.75468991 19.8377066 -5.17921589 19.80101705 -8.71875 18.03125 C-11.31151659 14.90467852 -11.88167167 12.74007462 -12.09375 8.73046875 C-11.82279947 6.27921321 -11.35591629 4.93401739 -9.96875 2.90625 C-6.3286049 0.06693683 -4.49425182 -0.29961679 0 0 Z " fill="#F1F1F2" transform="translate(751.84375,877.53125)"/>
<path d="M0 0 C2.53811231 0.61064241 3.74056543 1.17806543 5.57421875 3.01171875 C7.63769592 7.0675187 7.68011 9.13829957 7.07421875 13.5234375 C6.26365343 15.941317 5.37214478 16.99446871 3.38671875 18.57421875 C-0.25110757 19.78682752 -2.79064124 19.96966427 -6.61328125 19.57421875 C-10.18841277 16.62084923 -12.35692459 14.45416756 -12.98828125 9.82421875 C-12.59033447 6.37534669 -11.75123702 4.29321098 -9.37109375 1.72265625 C-6.35289304 -0.24923488 -3.52429456 -0.23706017 0 0 Z " fill="#F5F5F5" transform="translate(589.61328125,877.42578125)"/>
<path d="M0 0 C5.57894737 3.15789474 5.57894737 3.15789474 7 6 C7.70153846 13.13230769 7.70153846 13.13230769 4.625 16.9375 C0.84598336 19.90672736 -1.17380821 20.55686828 -6 20 C-10.29069767 17.61627907 -10.29069767 17.61627907 -12 15 C-12.86429927 11.48518295 -12.86429927 8.51481705 -12 5 C-9.11904916 0.59038136 -5.12483767 -0.96090706 0 0 Z " fill="#F2F2F2" transform="translate(345,836)"/>
<path d="M0 0 C3.28870485 2.72721866 3.89723897 4.28067282 4.5 8.5 C3.9231981 12.53761333 2.85349783 14.14650217 0 17 C-3.50903632 18.75451816 -7.18006284 18.6706258 -11 18 C-14.83944154 15.0052356 -14.83944154 15.0052356 -16 12 C-16.30835158 8.05846246 -16.16647201 4.44814849 -13.625 1.29296875 C-9.54967257 -1.94965957 -4.753639 -1.23560292 0 0 Z " fill="#F3F3F3" transform="translate(389,755)"/>
<path d="M0 0 C4.34326067 2.36905127 4.34326067 2.36905127 6 5 C6.78977085 8.49191542 6.77890306 11.5067378 6 15 C3.41131897 18.21624007 1.50151591 18.85410446 -2.4375 20 C-6.87656593 20 -8.66627363 18.85747974 -12 16 C-13.24489466 12.26531601 -13.78198552 8.86481305 -13 5 C-9.08169048 0.41271081 -5.97706438 -1.06733293 0 0 Z " fill="#F4F4F4" transform="translate(509,383)"/>
<path d="M0 0 C3.15441888 1.82624251 3.82861833 2.48585498 5 6 C5.38887761 10.19987818 5.45908323 12.29607238 3.125 15.875 C0.21289342 18.78710658 -0.6002777 18.96068305 -4.8125 19.375 C-8.2013027 19.31327317 -9.01699814 18.98866791 -12 17 C-14.56633404 13.15049894 -14.83751934 10.49711471 -14 6 C-12.7482675 3.12101525 -11.70330872 1.55259971 -9.25 -0.375 C-5.89718469 -1.30633759 -3.36130631 -0.78030325 0 0 Z " fill="#F2F2F3" transform="translate(958,878)"/>
<path d="M0 0 C5.57894737 3.15789474 5.57894737 3.15789474 7 6 C7.3751455 10.97067782 7.15878799 14.05151502 4 18 C0.78446554 20.32849047 -2.11021377 20.54457007 -6 20 C-10.29069767 17.61627907 -10.29069767 17.61627907 -12 15 C-12.86429927 11.48518295 -12.86429927 8.51481705 -12 5 C-9.11904916 0.59038136 -5.12483767 -0.96090706 0 0 Z " fill="#F3F3F3" transform="translate(834,836)"/>
<path d="M0 0 C5.70769231 3.12307692 5.70769231 3.12307692 7 7 C7.36366223 10.92755204 7.33869517 13.32260965 5.5625 16.875 C2.41387305 19.4860565 0.21521594 19.95903508 -3.80859375 20.2109375 C-7.14719082 19.88957522 -8.78607996 18.42147504 -11 16 C-12.75027469 12.49945062 -12.68972059 8.80988517 -12 5 C-9.09819442 0.62218951 -5.1097787 -0.95808351 0 0 Z " fill="#F3F3F4" transform="translate(671,836)"/>
<path d="M0 0 C3.07504636 2.02822207 4.66581629 3.49753176 5.48046875 7.16015625 C5.75593071 11.61966205 5.4516467 13.44412714 2.5625 17 C1.716875 17.66 0.87125 18.32 0 19 C-0.33 19.33 -0.66 19.66 -1 20 C-4.94726878 20.45898474 -6.78276033 20.11886699 -10.3125 18.1875 C-13 16 -13 16 -14 13 C-14.38514834 8.84039789 -14.44225244 6.70150387 -12.1875 3.125 C-8.51113222 -0.4463287 -4.95414001 -0.51249724 0 0 Z " fill="#F2F2F2" transform="translate(795,754)"/>
<path d="M0 0 C2.96349122 0.25867286 5.09554807 0.95703723 7.5625 2.625 C10.48877335 6.20968485 10.88712285 8.02240235 10.6015625 12.53125 C9.7514495 15.93170198 7.75716664 17.58434555 5.0625 19.6875 C4.7325 20.0175 4.4025 20.3475 4.0625 20.6875 C-0.56699609 21.10836328 -3.25022343 20.55538177 -6.9375 17.6875 C-9.50939679 14.25830428 -9.439642 10.84810514 -8.9375 6.6875 C-6.36132728 2.25970314 -5.09590777 0.88976167 0 0 Z " fill="#F2F2F2" transform="translate(463.9375,753.3125)"/>
<path d="M0 0 C3.125 2 3.125 2 5 5 C5.6642453 8.60692341 5.3598759 11.86039298 4.25 15.375 C2.59474722 17.52682862 1.61360243 18.17465186 -1 19 C-5.81531263 19.53503474 -7.87846537 19.70095914 -12 17.125 C-14.81177501 12.73160154 -14.88226521 9.07944924 -14 4 C-11.17509855 -1.39299367 -5.41162585 -0.98790585 0 0 Z " fill="#F2F2F3" transform="translate(673,713)"/>
<path d="M0 0 C2.98198955 1.31790577 3.83335905 2.33336498 6 5 C6.73587645 7.82941643 6.68756815 10.16378136 6 13 C4.20636089 15.8100346 2.98119065 17.50940468 0 19 C-7.75862069 19.43103448 -7.75862069 19.43103448 -11 17 C-13.5702492 13.98660438 -14.23964236 11.8006059 -13.9375 7.9375 C-13.45371683 5.29913611 -12.90660346 3.8443391 -11.5 1.5 C-7.69197535 -0.78481479 -4.31841606 -0.84279968 0 0 Z " fill="#F3F3F3" transform="translate(835,713)"/>
<path d="M0 0 C3.60199656 2.52906142 4.76443405 4.23787487 6.0625 8.4375 C5.98541095 12.83157589 4.78058336 14.66329997 2 18 C-1.50317094 19.75158547 -5.18694726 19.6837198 -9 19 C-12.63715985 15.95666217 -13.82298645 14.12108584 -14.5625 9.4375 C-13.91429589 5.47625263 -12.81200626 3.81200626 -10 1 C-6.77121481 -0.6143926 -3.49096318 -0.5818272 0 0 Z " fill="#F4F4F4" transform="translate(632,259)"/>
<path d="M0 0 C3.77951805 1.71796275 5.50107954 3.15254057 7 7 C7.08203125 9.25390625 7.08203125 9.25390625 6.8125 11.5625 C6.73644531 12.32691406 6.66039062 13.09132813 6.58203125 13.87890625 C5.87668294 16.44940377 5.12707681 17.40952666 3 19 C-0.01361446 20.01027837 -2.83573469 20.24216316 -6 20 C-10.39104235 17.76596091 -10.39104235 17.76596091 -12 15 C-12.84703294 11.47933929 -12.86516883 8.51835325 -12 5 C-9.10773343 0.57306137 -5.1453928 -0.87581154 0 0 Z " fill="#F3F3F3" transform="translate(834,877)"/>
<path d="M0 0 C3.15441888 1.82624251 3.82861833 2.48585498 5 6 C5.57368942 13.22848665 5.57368942 13.22848665 3.1875 16.4375 C-0.76418377 19.26013127 -4.24817663 19.49156793 -9 19 C-11.90757389 17.02037522 -13.66093205 15.6016924 -14.41015625 12.0625 C-14.60330446 7.62848892 -13.88611382 4.50456679 -11 1 C-7.44212085 -1.79547647 -4.22578976 -0.98098691 0 0 Z " fill="#F3F3F3" transform="translate(347,878)"/>
<path d="M0 0 C2.98198955 1.31790577 3.83335905 2.33336498 6 5 C6.88965566 10.09530059 6.56500141 11.9453307 4.125 16.5 C1.63321806 19.10601836 -0.51034323 19.4933644 -4.0625 19.6875 C-7.49700487 19.4469311 -8.76683125 19.16654911 -11.625 17.125 C-13.58147541 12.67846499 -13.76580524 8.7802369 -13 4 C-10.20411862 -1.10552253 -5.25018478 -1.02464746 0 0 Z " fill="#F4F4F5" transform="translate(550,548)"/>
<path d="M0 0 C3.07490343 1.83106228 3.84577321 2.53731964 5 6 C5.38887761 10.19987818 5.45908323 12.29607238 3.125 15.875 C0.21289342 18.78710658 -0.6002777 18.96068305 -4.8125 19.375 C-8.11983012 19.30270863 -9.04807509 18.96995307 -12 17.125 C-14.81177501 12.73160154 -14.88226521 9.07944924 -14 4 C-11.2175061 -1.3120338 -5.36487189 -0.95432817 0 0 Z " fill="#F4F4F4" transform="translate(551,218)"/>
<path d="M0 0 C2.97033746 1.98022497 4.65454093 3.35242595 5.40625 6.9375 C5.61001174 11.42025831 4.75921001 14.35784279 2 18 C0.27152533 19.72847467 -1.9573335 19.29389493 -4.3125 19.375 C-9.58430301 19.29968853 -9.58430301 19.29968853 -12.6875 17.0625 C-14.46871263 12.90633719 -15.04398172 9.44093763 -14 5 C-9.81316068 -0.12887817 -6.48223319 -1.0289259 0 0 Z " fill="#F1F1F2" transform="translate(673,754)"/>
<path d="M0 0 C2.5625 1.375 2.5625 1.375 4 4 C4.76580524 8.7802369 4.58147541 12.67846499 2.625 17.125 C-0.84307141 19.60219387 -3.37945637 19.77035018 -7.58203125 19.546875 C-10.20603148 18.9534016 -11.3005862 18.38214738 -13.125 16.4375 C-15.29422604 12.46058559 -15.72953707 10.45828211 -15 6 C-10.94103967 -0.22373917 -7.08606897 -0.84327997 0 0 Z " fill="#F3F3F3" transform="translate(470,713)"/>
<path d="M0 0 C1.46566406 -0.03867187 1.46566406 -0.03867187 2.9609375 -0.078125 C5.625 0.25 5.625 0.25 7.4140625 1.578125 C10.07038965 5.24557023 10.0016153 8.88126258 9.625 13.25 C7.82937595 16.00329021 6.57245078 17.77627461 3.625 19.25 C-3.34642857 19.93571429 -3.34642857 19.93571429 -7.375 17.25 C-9.93128113 13.41557831 -10.23546294 10.73346481 -9.375 6.25 C-6.78227697 0.95182685 -5.78539934 0.09110865 0 0 Z " fill="#F4F4F4" transform="translate(301.375,918.75)"/>
<path d="M0 0 C2.57637471 1.88515223 3.59667428 3.19334857 5 6 C5.39447548 10.18144011 5.45035186 12.30946048 3.125 15.875 C0.21289342 18.78710658 -0.6002777 18.96068305 -4.8125 19.375 C-8.11983012 19.30270863 -9.04807509 18.96995307 -12 17.125 C-14.81177501 12.73160154 -14.88226521 9.07944924 -14 4 C-11.1793724 -1.38483451 -5.41136587 -0.91840153 0 0 Z " fill="#F3F3F4" transform="translate(673,919)"/>
<path d="M0 0 C3.11199254 1.99167522 4.61304528 3.27090501 5.43359375 6.9375 C5.67357753 10.77724044 5.23135114 12.63754988 3.125 15.9375 C0.37722199 18.60446101 -0.446746 18.95824498 -4.3125 19.25 C-8.19655077 18.98667452 -9.94531404 18.33593632 -13 16 C-14.85572573 12.28854853 -14.43780288 8.05131023 -14 4 C-11.17509855 -1.39299367 -5.41162585 -0.98790585 0 0 Z " fill="#F3F3F4" transform="translate(551,713)"/>
<path d="M0 0 C1.16015625 0.10054687 1.16015625 0.10054687 2.34375 0.203125 C4.96199324 0.8671722 5.89991758 1.58719746 7.5 3.75 C8.4356747 6.7419179 8.69743592 9.62393122 8.5 12.75 C6.73496686 15.67143417 5.54152365 17.22923817 2.5 18.75 C-0.55844289 19.16330309 -3.44654817 19.22268738 -6.5 18.75 C-9.64734655 16.1534391 -10.36592105 14.21089639 -11.5 10.3125 C-11.5 5.87343407 -10.35747974 4.08372637 -7.5 0.75 C-4.51786685 -0.24404438 -3.05541462 -0.30554146 0 0 Z " fill="#F3F3F4" transform="translate(832.5,960.25)"/>
<path d="M0 0 C2.57637471 1.88515223 3.59667428 3.19334857 5 6 C5.34556568 9.01135805 5.57794337 11.09361171 5 14 C1.9812737 17.5341186 0.07887394 18.80734394 -4.5 19.625 C-7.96757991 19.0057893 -10.28924688 18.19937088 -12.89453125 15.76171875 C-15.18618464 12.10964921 -14.77418262 8.09902049 -14 4 C-11.1793724 -1.38483451 -5.41136587 -0.91840153 0 0 Z " fill="#F5F5F5" transform="translate(510,878)"/>
<path d="M0 0 C3.375 2 3.375 2 6 5 C7.01329408 9.08612896 6.38988194 12.1670704 4.625 15.9375 C3 18 3 18 1 19 C-3.49374318 19.47755807 -7.56602654 19.75112895 -11.625 17.625 C-13.7811155 13.5087795 -13.76312271 9.54095793 -13 5 C-9.67292699 0.29620712 -5.58977452 -0.65762053 0 0 Z " fill="#F4F4F4" transform="translate(509,754)"/>
<path d="M0 0 C3.87832274 0.92233016 5.42507928 2.38197014 8.00390625 5.4765625 C8.81391996 10.11573195 8.72553028 13.04366228 6.06640625 16.9765625 C2.48936585 19.89659548 0.6683652 20.33028138 -3.8359375 19.984375 C-7.57309928 19.10583787 -8.96604137 17.68535497 -10.99609375 14.4765625 C-11.68753644 11.31649799 -11.69310899 8.63598406 -10.99609375 5.4765625 C-8.10090383 1.04330293 -5.38398981 -0.38821938 0 0 Z " fill="#F3F3F4" transform="translate(669.99609375,547.5234375)"/>
<path d="M0 0 C2.57637471 1.88515223 3.59667428 3.19334857 5 6 C5.48205722 10.17782921 5.41000905 13.02462685 2.9375 16.4375 C0 19 0 19 -3.5 19.5625 C-8.11576693 18.82068031 -10.72784337 17.27215663 -14 14 C-14.66745735 9.54511022 -14.73264684 5.39868943 -12.625 1.375 C-8.51232772 -0.77925691 -4.53726361 -0.77005139 0 0 Z " fill="#F5F5F5" transform="translate(673,878)"/>
<path d="M0 0 C3.4375 2 3.4375 2 6 5 C6.99984298 9.06493539 6.37600241 12.15847079 4.6875 15.9375 C2.63492383 18.4462042 1.03442196 18.84950399 -2.12109375 19.30859375 C-4.52620234 19.44243622 -6.62877052 19.44086035 -9 19 C-12.17769836 15.89980647 -13.23179591 13.21502977 -13.5 8.875 C-13 5 -13 5 -11.125 2.5625 C-7.29384709 -0.2545242 -4.77353686 -0.47735369 0 0 Z " fill="#F5F5F5" transform="translate(957,960)"/>
<path d="M0 0 C2.62400023 0.5934734 3.71855495 1.16472762 5.54296875 3.109375 C7.73341248 7.12518851 8.22146684 9.0472857 7.41796875 13.546875 C5.41796875 16.984375 5.41796875 16.984375 2.41796875 19.546875 C-1.4468443 20.32886052 -4.84734726 19.79176966 -8.58203125 18.546875 C-10.66836221 16.69235859 -11.47701705 15.21571542 -11.91015625 12.45703125 C-12.08907305 8.61670987 -11.79493433 6.02106823 -10.20703125 2.484375 C-6.74227278 -0.07294673 -4.24154901 -0.22554766 0 0 Z " fill="#F4F4F5" transform="translate(833.58203125,918.453125)"/>
<path d="M0 0 C3.0625 1.4375 3.0625 1.4375 5 4 C5.972389 8.65357593 5.65170498 11.95727203 3.125 16 C-0.03478261 18.97391304 -0.03478261 18.97391304 -3.0234375 19.0546875 C-7.08355705 18.74444581 -9.359902 18.53081297 -12.5625 15.875 C-14.37462469 12.25075063 -14.50128322 10.01026576 -14 6 C-10.83432111 -0.61914677 -6.85388303 -0.8035587 0 0 Z " fill="#F5F5F5" transform="translate(469,878)"/>
<path d="M0 0 C4.04779013 0.03867315 6.52847482 0.63251079 9.75 3.25 C11.35086627 6.45173254 11.24917089 9.77577059 10.75 13.25 C8.95636089 16.0600346 7.73119065 17.75940468 4.75 19.25 C1.07670036 19.38357453 -1.74852959 19.4171568 -5.25 18.25 C-8.38666564 14.30012476 -8.78186477 11.21407116 -8.25 6.25 C-5.94007839 1.63015678 -5.10263781 0.10137691 0 0 Z " fill="#F5F5F6" transform="translate(952.25,918.75)"/>
<path d="M0 0 C0.77988281 -0.01417969 1.55976563 -0.02835938 2.36328125 -0.04296875 C4.95964014 0.21448532 6.49720546 0.78178858 8.6875 2.1875 C11.14415197 5.87247796 11.38836491 8.90721786 10.6875 13.1875 C8.89386089 15.9975346 7.66869065 17.69690468 4.6875 19.1875 C1.01420036 19.32107453 -1.81102959 19.3546568 -5.3125 18.1875 C-8.44916564 14.23762476 -8.84436477 11.15157116 -8.3125 6.1875 C-5.97280162 1.50810325 -5.15978715 0.04222412 0 0 Z " fill="#F5F5F6" transform="translate(341.3125,918.8125)"/>
<path d="M0 0 C4.6 2.2 4.6 2.2 6 5 C6.6469176 9.7040151 6.63833677 12.99101607 4.0625 17.0625 C0.51192927 19.30877944 -1.68945058 19.80255164 -5.8359375 19.5390625 C-8.7480118 18.81367215 -10.55632168 17.39379713 -12.25 14.91796875 C-13.71460055 11.17255797 -13.28011139 7.74788167 -12 4 C-8.4695656 -0.25728854 -5.37146176 -0.67143272 0 0 Z " fill="#F6F6F6" transform="translate(794,383)"/>
<path d="M0 0 C2.12707681 1.59047334 2.87668294 2.55059623 3.58203125 5.12109375 C3.65808594 5.88550781 3.73414063 6.64992188 3.8125 7.4375 C3.90144531 8.19933594 3.99039063 8.96117187 4.08203125 9.74609375 C3.98486805 12.41576844 3.50960668 13.798685 2 16 C-2.02343243 18.66808125 -6.33292664 18.80496311 -11 18 C-13.84618734 15.84800469 -14.73027585 14.31997747 -15.44140625 10.83984375 C-15.79371764 6.34974751 -15.39660488 4.5084678 -12.5625 0.875 C-8.63844694 -1.83446521 -4.39553798 -1.47355178 0 0 Z " fill="#F5F5F6" transform="translate(837,755)"/>
<path d="M0 0 C0.66 0.33 1.32 0.66 2 1 C1.67 2.32 1.34 3.64 1 5 C0.34 5 -0.32 5 -1 5 C-0.9278125 5.61488281 -0.855625 6.22976563 -0.78125 6.86328125 C-0.6884375 7.67152344 -0.595625 8.47976563 -0.5 9.3125 C-0.4071875 10.11300781 -0.314375 10.91351563 -0.21875 11.73828125 C0 14 0 14 0 17 C-3 15 -3 15 -3.6171875 13.01171875 C-4.05582892 9.05729988 -4.31682871 6.69126263 -2.625 3 C-1 1 -1 1 0 0 Z " fill="#EFEFF0" transform="translate(785,466)"/>
<path d="M0 0 C0.66 0.33 1.32 0.66 2 1 C1.50886719 1.37769531 1.01773437 1.75539063 0.51171875 2.14453125 C-1.57897883 4.71063292 -1.30262202 6.42570933 -1.1875 9.6875 C-1.16042969 10.68136719 -1.13335937 11.67523437 -1.10546875 12.69921875 C-1.05326172 13.83810547 -1.05326172 13.83810547 -1 15 C-1.99 15 -2.98 15 -4 15 C-5.475 7.87083333 -5.475 7.87083333 -3.125 3.5625 C-1 1 -1 1 0 0 Z " fill="#C1C0C2" transform="translate(500,548)"/>
<path d="M0 0 C2.4375 2 2.4375 2 4 4 C1.41683216 4 -1.05639773 3.8676367 -3.625 3.625 C-4.81996094 3.52058594 -4.81996094 3.52058594 -6.0390625 3.4140625 C-6.68617188 3.27742187 -7.33328125 3.14078125 -8 3 C-8.33 2.34 -8.66 1.68 -9 1 C-5.90826248 -0.54586876 -3.40570448 -0.29359521 0 0 Z " fill="#EDEDED" transform="translate(957,960)"/>
<path d="M0 0 C0.78503906 0.00386719 1.57007813 0.00773438 2.37890625 0.01171875 C4.4375 0.3125 4.4375 0.3125 6.4375 2.3125 C3.69844655 3.68202673 1.46662668 3.43871361 -1.5625 3.3125 C-2.2225 2.9825 -2.8825 2.6525 -3.5625 2.3125 C-4.8825 3.6325 -6.2025 4.9525 -7.5625 6.3125 C-7.5625 3.3125 -7.5625 3.3125 -6.34765625 1.64453125 C-4.08651803 -0.04266379 -2.79540451 -0.05986863 0 0 Z " fill="#D9D9DA" transform="translate(545.5625,959.6875)"/>
<path d="M0 0 C0.66 0.33 1.32 0.66 2 1 C1.319375 1.7115625 1.319375 1.7115625 0.625 2.4375 C-1.6701934 6.05684343 -2.24134665 9.8229439 -3 14 C-5 12 -5 12 -5.4375 9.25 C-4.83839921 4.79953698 -3.06348779 3.21666218 0 0 Z " fill="#E1E1E1" transform="translate(378,837)"/>
<path d="M0 0 C0.66 0.99 1.32 1.98 2 3 C-0.48400602 4.24200301 -1.82207636 3.98221651 -4.5625 3.6875 C-5.36816406 3.60886719 -6.17382812 3.53023437 -7.00390625 3.44921875 C-7.66261719 3.30097656 -8.32132813 3.15273438 -9 3 C-9.33 2.34 -9.66 1.68 -10 1 C-6.457201 -0.180933 -3.71640139 -0.27028374 0 0 Z " fill="#EAEAEB" transform="translate(673,960)"/>
<path d="M0 0 C0.99 0.66 1.98 1.32 3 2 C0.29120665 3.35439668 -2.00933268 3.06501451 -5 3 C-5 2.34 -5 1.68 -5 1 C-6.65 2.32 -8.3 3.64 -10 5 C-10.66 4.67 -11.32 4.34 -12 4 C-8.40707576 -0.79056565 -5.61505647 -0.53476728 0 0 Z " fill="#DDDDDE" transform="translate(875,960)"/>
<path d="M0 0 C0.90105469 0.02707031 1.80210937 0.05414062 2.73046875 0.08203125 C3.76107422 0.13423828 3.76107422 0.13423828 4.8125 0.1875 C4.4825 1.1775 4.1525 2.1675 3.8125 3.1875 C-0.1875 3.1875 -4.1875 3.1875 -8.1875 3.1875 C-5.67753317 0.01043235 -3.96125134 -0.15433447 0 0 Z " fill="#D9D9D9" transform="translate(994.1875,959.8125)"/>
<path d="M0 0 C2.3828125 -0.29296875 2.3828125 -0.29296875 5.125 -0.1875 C6.03507813 -0.16042969 6.94515625 -0.13335938 7.8828125 -0.10546875 C8.58148437 -0.07066406 9.28015625 -0.03585937 10 0 C9.67 0.99 9.34 1.98 9 3 C5.37 3 1.74 3 -2 3 C-1.34 2.01 -0.68 1.02 0 0 Z " fill="#DDDDDD" transform="translate(908,960)"/>
<path d="M0 0 C0.66 0.33 1.32 0.66 2 1 C1.0409375 2.0209375 1.0409375 2.0209375 0.0625 3.0625 C-2.3258493 6.46408839 -2.67877153 8.90433701 -3 13 C-3.66 12.67 -4.32 12.34 -5 12 C-5.35338623 9.03155565 -5.5417682 6.84401782 -3.88671875 4.265625 C-2.64496832 2.79651181 -1.32662082 1.39295186 0 0 Z " fill="#E3E3E4" transform="translate(582,878)"/>
<path d="M0 0 C0.33 0.99 0.66 1.98 1 3 C-3.51350747 6.52273754 -6.28341664 7.45732667 -12 7 C-12 6.34 -12 5.68 -12 5 C-8.92382812 4.70703125 -8.92382812 4.70703125 -5.84765625 4.4140625 C-5.23792969 4.27742187 -4.62820313 4.14078125 -4 4 C-3.67 3.34 -3.34 2.68 -3 2 C-2.01 2 -1.02 2 0 2 C0 1.34 0 0.68 0 0 Z " fill="#DBDADB" transform="translate(758,684)"/>
<path d="M0 0 C0.66 0 1.32 0 2 0 C2.33 0.99 2.66 1.98 3 3 C0.28817788 5.60334924 -0.89133813 5.99456691 -4.75 6.1875 C-5.8225 6.125625 -6.895 6.06375 -8 6 C-8.33 5.34 -8.66 4.68 -9 4 C-6.36 4 -3.72 4 -1 4 C-0.67 2.68 -0.34 1.36 0 0 Z " fill="#E5E5E6" transform="translate(755,520)"/>
<path d="M0 0 C0.99 0.33 1.98 0.66 3 1 C1.625 3.5 1.625 3.5 -1 6 C-4.37080851 6.44908891 -7.61884349 6.29036649 -11 6 C-11 5.67 -11 5.34 -11 5 C-4.25 3.875 -4.25 3.875 -2 5 C-1.855625 4.360625 -1.71125 3.72125 -1.5625 3.0625 C-1 1 -1 1 0 0 Z " fill="#D8D8D8" transform="translate(756,932)"/>
<path d="M0 0 C0.66 0.99 1.32 1.98 2 3 C1.67 3.33 1.34 3.66 1 4 C0.92851801 5.35243917 0.91600546 6.70834367 0.9375 8.0625 C0.958125 9.361875 0.97875 10.66125 1 12 C0.01 12 -0.98 12 -2 12 C-2.05422947 10.5629191 -2.09289723 9.12524538 -2.125 7.6875 C-2.14820313 6.88699219 -2.17140625 6.08648438 -2.1953125 5.26171875 C-2 3 -2 3 0 0 Z " fill="#D8D7D9" transform="translate(905,839)"/>
<path d="M0 0 C2.61627165 2.61627165 2.77669287 4.35265021 3 8 C1.5625 9.875 1.5625 9.875 0 11 C-1.26026798 8.47946405 -0.91874445 7.1457902 -0.5625 4.375 C-0.46066406 3.55773437 -0.35882812 2.74046875 -0.25390625 1.8984375 C-0.17011719 1.27195312 -0.08632813 0.64546875 0 0 Z " fill="#D4D3D5" transform="translate(985,964)"/>
<path d="M0 0 C0.66 0.33 1.32 0.66 2 1 C1.0409375 2.0209375 1.0409375 2.0209375 0.0625 3.0625 C-2.3258493 6.46408839 -2.67877153 8.90433701 -3 13 C-3.66 12.67 -4.32 12.34 -5 12 C-5.35338623 9.03155565 -5.5417682 6.84401782 -3.88671875 4.265625 C-2.64496832 2.79651181 -1.32662082 1.39295186 0 0 Z " fill="#DADADB" transform="translate(582,919)"/>
<path d="M0 0 C0.33 0 0.66 0 1 0 C1 3.3 1 6.6 1 10 C0.01 10.495 0.01 10.495 -1 11 C-2.38550197 8.22899606 -2.1877467 6.0665294 -2 3 C-1.34 2.01 -0.68 1.02 0 0 Z " fill="#D0D0D1" transform="translate(538,881)"/>
<path d="M0 0 C0.99 0 1.98 0 3 0 C4.46726798 3.81489674 3.43336419 6.29011622 2 10 C-0.4294516 6.3558226 -0.16179575 4.28758728 0 0 Z " fill="#ECECED" transform="translate(781,760)"/>
<path d="M0 0 C0.66 0.33 1.32 0.66 2 1 C0.625 3.5 0.625 3.5 -1 6 C-1.66 6 -2.32 6 -3 6 C-3.33 8.31 -3.66 10.62 -4 13 C-4.33 13 -4.66 13 -5 13 C-5.602537 6.97463002 -5.602537 6.97463002 -3.88671875 4.19921875 C-2.65378147 2.74400545 -1.33191067 1.36520843 0 0 Z " fill="#D2D2D2" transform="translate(745,919)"/>
<path d="M0 0 C3.1875 -0.3125 3.1875 -0.3125 7 0 C9.9375 2.5 9.9375 2.5 12 5 C11.34 5.66 10.68 6.32 10 7 C8.33333333 5.33333333 6.66666667 3.66666667 5 2 C2.42938689 1.35232207 2.42938689 1.35232207 0 1 C0 0.67 0 0.34 0 0 Z " fill="#E3E4E3" transform="translate(298,795)"/>
<path d="M0 0 C0.99 0.33 1.98 0.66 3 1 C-0.96 4.465 -0.96 4.465 -5 8 C-5.33 7.01 -5.66 6.02 -6 5 C-1.60546875 0.99609375 -1.60546875 0.99609375 0 0 Z " fill="#EAEAEA" transform="translate(502,383)"/>
<path d="M0 0 C2.4294516 3.6441774 2.16179575 5.71241272 2 10 C1.34 10 0.68 10 0 10 C-1.36952673 7.26094655 -1.12621361 5.02912668 -1 2 C-0.67 1.34 -0.34 0.68 0 0 Z " fill="#CCCBCC" transform="translate(537,841)"/>
<path d="M0 0 C2.97 0.33 5.94 0.66 9 1 C8.67 1.66 8.34 2.32 8 3 C5.36 3 2.72 3 0 3 C0 2.01 0 1.02 0 0 Z " fill="#E4E5E5" transform="translate(380,754)"/>
<path d="M0 0 C0.66 0.33 1.32 0.66 2 1 C1.195625 1.86625 0.39125 2.7325 -0.4375 3.625 C-2.96924136 6.62876093 -3.71657376 9.03203262 -4 13 C-4.33 13 -4.66 13 -5 13 C-5.61538462 5.73846154 -5.61538462 5.73846154 -2.5 2 C-1.675 1.34 -0.85 0.68 0 0 Z " fill="#C5C4C5" transform="translate(745,713)"/>
<path d="M0 0 C1.32 0.66 2.64 1.32 4 2 C4 2.99 4 3.98 4 5 C6.31 5 8.62 5 11 5 C11 5.33 11 5.66 11 6 C3.61538462 6.49230769 3.61538462 6.49230769 0.5 4 C0.005 3.34 -0.49 2.68 -1 2 C-0.67 1.34 -0.34 0.68 0 0 Z " fill="#C7C7C8" transform="translate(743,314)"/>
<path d="M0 0 C0.33 0 0.66 0 1 0 C1.32644414 4.16216275 1.40650982 6.36313462 -0.875 9.9375 C-3 12 -3 12 -5 12 C-5 11.34 -5 10.68 -5 10 C-4.34 10 -3.68 10 -3 10 C-3.33 9.01 -3.66 8.02 -4 7 C-3.34 7 -2.68 7 -2 7 C-1.34 4.69 -0.68 2.38 0 0 Z " fill="#C7C6C7" transform="translate(922,966)"/>
<path d="M0 0 C0.66 0.33 1.32 0.66 2 1 C0.625 3.5 0.625 3.5 -1 6 C-1.66 6 -2.32 6 -3 6 C-3 7.98 -3 9.96 -3 12 C-3.33 12 -3.66 12 -4 12 C-4.33292585 7.75519536 -4.43885872 5.64457375 -2 2.0625 C-1.34 1.381875 -0.68 0.70125 0 0 Z " fill="#C9C8CA" transform="translate(703,961)"/>
<path d="M0 0 C0.66 0.33 1.32 0.66 2 1 C0.625 3.5 0.625 3.5 -1 6 C-1.66 6 -2.32 6 -3 6 C-3 7.98 -3 9.96 -3 12 C-3.33 12 -3.66 12 -4 12 C-4.33292585 7.75519536 -4.43885872 5.64457375 -2 2.0625 C-1.34 1.381875 -0.68 0.70125 0 0 Z " fill="#C7C6C8" transform="translate(581,260)"/>
<path d="M0 0 C0.66 0.33 1.32 0.66 2 1 C1.49339844 1.68835938 1.49339844 1.68835938 0.9765625 2.390625 C-2.36308951 6.98192426 -2.36308951 6.98192426 -5 12 C-4.50769231 4.61538462 -4.50769231 4.61538462 -1.9375 1.5 C-1.298125 1.005 -0.65875 0.51 0 0 Z " fill="#B4B4B5" transform="translate(500,919)"/>
<path d="M0 0 C-0.8125 1.9375 -0.8125 1.9375 -2 4 C-2.99 4.33 -3.98 4.66 -5 5 C-5 7.31 -5 9.62 -5 12 C-5.33 12 -5.66 12 -6 12 C-6.48979592 4.65306122 -6.48979592 4.65306122 -4.125 1.5 C-2 0 -2 0 0 0 Z " fill="#D8D7D8" transform="translate(909,796)"/>
<path d="M0 0 C0.66 0.33 1.32 0.66 2 1 C1.34 2.32 0.68 3.64 0 5 C-0.66 5 -1.32 5 -2 5 C-2.33 7.31 -2.66 9.62 -3 12 C-3.33 12 -3.66 12 -4 12 C-4.33292585 7.75519536 -4.43885872 5.64457375 -2 2.0625 C-1.34 1.381875 -0.68 0.70125 0 0 Z " fill="#C5C4C5" transform="translate(744,755)"/>
<path d="M0 0 C2.09375 -0.36328125 2.09375 -0.36328125 4.5 -0.3125 C5.69109375 -0.30669922 5.69109375 -0.30669922 6.90625 -0.30078125 C9 0 9 0 11 2 C9.20821221 2 7.41616768 1.98463599 5.625 1.9375 C2.9687568 2.00074389 0.58531513 2.40907083 -2 3 C-1.34 2.01 -0.68 1.02 0 0 Z " fill="#E0E0E0" transform="translate(541,548)"/>
<path d="M0 0 C0.66 0.33 1.32 0.66 2 1 C1.8125 2.875 1.8125 2.875 1 5 C-1.5625 6.25 -1.5625 6.25 -4 7 C-2.92598892 4.08482708 -2.22189824 2.22189824 0 0 Z " fill="#DFDEDF" transform="translate(785,466)"/>
<path d="M0 0 C2.64 0.33 5.28 0.66 8 1 C6 3 6 3 2.375 3.125 C1.26125 3.08375 0.1475 3.0425 -1 3 C-0.67 2.01 -0.34 1.02 0 0 Z " fill="#D7D6D6" transform="translate(707,317)"/>
<path d="M0 0 C2.875 -0.125 2.875 -0.125 6 0 C6.66 0.66 7.32 1.32 8 2 C5.29120665 3.35439668 2.99066732 3.06501451 0 3 C0 2.01 0 1.02 0 0 Z " fill="#141414" transform="translate(584,256)"/>
<path d="M0 0 C6.4 -0.49230769 6.4 -0.49230769 9.4375 2 C10.2109375 2.99 10.2109375 2.99 11 4 C10.01 4.495 10.01 4.495 9 5 C8.443125 4.525625 7.88625 4.05125 7.3125 3.5625 C4.81653926 1.87604004 2.9553763 1.41046893 0 1 C0 0.67 0 0.34 0 0 Z " fill="#E2E3E2" transform="translate(950,795)"/>
<path d="M0 0 C0 3 0 3 -1.4375 4.875 C-3.2010399 7.27341427 -3.59478146 9.08242648 -4 12 C-4.33 12 -4.66 12 -5 12 C-5.32469403 7.34605219 -4.79790518 4.76641082 -2 1 C-1.34 0.67 -0.68 0.34 0 0 Z " fill="#BEBEBF" transform="translate(541,796)"/>
<path d="M0 0 C0.66 0 1.32 0 2 0 C2 2.31 2 4.62 2 7 C1.01 7 0.02 7 -1 7 C-1.04254356 5.00045254 -1.04080783 2.99958364 -1 1 C-0.67 0.67 -0.34 0.34 0 0 Z " fill="#242424" transform="translate(657,595)"/>
<path d="M0 0 C0 0.33 0 0.66 0 1 C-1.98 1 -3.96 1 -6 1 C-6.33 1.99 -6.66 2.98 -7 4 C-9.5625 5.1875 -9.5625 5.1875 -12 6 C-9.92191188 -0.23426437 -6.0915195 -0.35143382 0 0 Z " fill="#C2C2C2" transform="translate(794,341)"/>
<path d="M0 0 C0.66 0.99 1.32 1.98 2 3 C1 4 1 4 -2.5625 4.0625 C-3.696875 4.041875 -4.83125 4.02125 -6 4 C-5.67 3.01 -5.34 2.02 -5 1 C-3.35 0.67 -1.7 0.34 0 0 Z " fill="#CACBCB" transform="translate(508,275)"/>
<path d="M0 0 C2.64 0 5.28 0 8 0 C8 0.99 8 1.98 8 3 C5.36 3 2.72 3 0 3 C0 2.01 0 1.02 0 0 Z " fill="#0C0C0C" transform="translate(461,773)"/>
<path d="M0 0 C0.33 0 0.66 0 1 0 C2.05699482 5.28497409 2.05699482 5.28497409 2 8 C0.0625 10.5 0.0625 10.5 -2 12 C-2.99 11.67 -3.98 11.34 -5 11 C-4.0409375 10.2265625 -4.0409375 10.2265625 -3.0625 9.4375 C-0.44208319 6.34064377 -0.30610183 3.97932377 0 0 Z " fill="#414140" transform="translate(474,761)"/>
<path d="M0 0 C3 1 3 1 4 3 C4.06950541 4.54023996 4.08452357 6.08334988 4.0625 7.625 C4.05347656 8.44226563 4.04445313 9.25953125 4.03515625 10.1015625 C4.02355469 10.72804688 4.01195312 11.35453125 4 12 C3.67 12 3.34 12 3 12 C2.814375 10.4221875 2.814375 10.4221875 2.625 8.8125 C2.08859218 5.54041229 1.36119965 2.99463924 0 0 Z " fill="#CECECE" transform="translate(552,674)"/>
<path d="M0 0 C1.98 0 3.96 0 6 0 C6 0.99 6 1.98 6 3 C3.69 2.67 1.38 2.34 -1 2 C-0.67 1.34 -0.34 0.68 0 0 Z " fill="#080808" transform="translate(543,297)"/>
<path d="M0 0 C2 2 2 2 2.125 5.625 C2.08375 6.73875 2.0425 7.8525 2 9 C1.01 9 0.02 9 -1 9 C-1.125 2.25 -1.125 2.25 0 0 Z " fill="#303031" transform="translate(494,964)"/>
<path d="M0 0 C0.33 0 0.66 0 1 0 C2.05699482 5.28497409 2.05699482 5.28497409 2 8 C0.0625 10.5 0.0625 10.5 -2 12 C-2.66 11.67 -3.32 11.34 -4 11 C-3.2884375 10.2265625 -3.2884375 10.2265625 -2.5625 9.4375 C-0.57190593 6.33217325 -0.34939182 3.63367496 0 0 Z " fill="#464746" transform="translate(474,802)"/>
<path d="M0 0 C0.33 0.99 0.66 1.98 1 3 C0.01 4.485 0.01 4.485 -1 6 C-1.38499891 7.65549531 -1.72793135 9.3222433 -2 11 C-2.33 11 -2.66 11 -3 11 C-3.36923077 3.49230769 -3.36923077 3.49230769 -1.5 1 C-1.005 0.67 -0.51 0.34 0 0 Z " fill="#C0BFC0" transform="translate(743,344)"/>
<path d="M0 0 C1.98 0 3.96 0 6 0 C5.67 0.99 5.34 1.98 5 3 C3.02 3 1.04 3 -1 3 C-0.67 2.01 -0.34 1.02 0 0 Z " fill="#0E0E0E" transform="translate(462,320)"/>
<path d="M0 0 C3.375 -0.125 3.375 -0.125 7 0 C7.66 0.66 8.32 1.32 9 2 C6.36 2.33 3.72 2.66 1 3 C0.67 2.01 0.34 1.02 0 0 Z " fill="#D0D0D0" transform="translate(787,300)"/>
<path d="M0 0 C2.64 0 5.28 0 8 0 C7.01 0.495 7.01 0.495 6 1 C6 1.66 6 2.32 6 3 C4.35 3 2.7 3 1 3 C0.67 2.01 0.34 1.02 0 0 Z " fill="#E2E2E2" transform="translate(787,960)"/>
<path d="M0 0 C3.3 0 6.6 0 10 0 C6 3 6 3 2.25 2.6875 C1.1775 2.460625 0.105 2.23375 -1 2 C-0.67 1.34 -0.34 0.68 0 0 Z " fill="#C7C8C7" transform="translate(337,960)"/>
<path d="M0 0 C0.66 0.33 1.32 0.66 2 1 C1.34 2.32 0.68 3.64 0 5 C-1.32 5 -2.64 5 -4 5 C-3.67 4.34 -3.34 3.68 -3 3 C-2.34 3 -1.68 3 -1 3 C-0.67 2.01 -0.34 1.02 0 0 Z " fill="#E3E3E3" transform="translate(879,890)"/>
<path d="M0 0 C0.66 0.33 1.32 0.66 2 1 C0.625 3 0.625 3 -1 5 C-1.66 5 -2.32 5 -3 5 C-3.33 5.99 -3.66 6.98 -4 8 C-4.33 7.34 -4.66 6.68 -5 6 C-3.78741495 2.76643985 -2.98715542 1.99143695 0 0 Z " fill="#DEDEDF" transform="translate(623,713)"/>
<path d="M0 0 C0.33 0.66 0.66 1.32 1 2 C1.66 2 2.32 2 3 2 C2.67 3.98 2.34 5.96 2 8 C1.34 7.67 0.68 7.34 0 7 C0 4.69 0 2.38 0 0 Z " fill="#171817" transform="translate(556,678)"/>
</svg>
